<?xml version="1.0" encoding="UTF-8" standalone="no"?>
<!-- Created with Inkscape (http://www.inkscape.org/) -->

<svg
   version="1.1"
   id="svg2"
   width="1122.52"
   height="322.82932"
   viewBox="0 0 1122.52 322.82932"
   xmlns="http://www.w3.org/2000/svg"
   xmlns:svg="http://www.w3.org/2000/svg">
  <defs
     id="defs6">
    <clipPath
       clipPathUnits="userSpaceOnUse"
       id="clipPath16">
      <path
         d="M 0,242.122 H 841.89 V 0 H 0 Z"
         id="path14" />
    </clipPath>
    <clipPath
       clipPathUnits="userSpaceOnUse"
       id="clipPath128">
      <path
         d="m 166.929,102.173 c -0.33,0 -0.464,-0.109 -0.542,-0.476 v 0 l -5.332,-25.09 c -0.079,-0.368 0.006,-0.478 0.338,-0.478 v 0 h 15.517 c 0.33,0 0.463,0.11 0.54,0.478 v 0 l 0.142,0.66 c 0.069,0.33 -0.017,0.441 -0.345,0.441 v 0 h -14.27 l 2.297,10.82 h 12.145 c 0.365,0 0.499,0.109 0.576,0.476 v 0 l 0.139,0.661 c 0.072,0.33 -0.006,0.474 -0.372,0.474 v 0 h -12.143 l 2.221,10.458 h 13.757 c 0.33,0 0.501,0.109 0.568,0.439 v 0 l 0.144,0.661 c 0.077,0.367 -0.047,0.476 -0.379,0.476 v 0 z"
         id="path126" />
    </clipPath>
    <clipPath
       clipPathUnits="userSpaceOnUse"
       id="clipPath138">
      <path
         d="M 0,242.122 H 841.89 V 0 H 0 Z"
         id="path136" />
    </clipPath>
    <clipPath
       clipPathUnits="userSpaceOnUse"
       id="clipPath158">
      <path
         d="m 166.929,103.138 c -0.456,0 -1.258,-0.16 -1.487,-1.24 v 0 l -5.332,-25.09 c -0.016,-0.077 -0.045,-0.22 -0.048,-0.394 v 0 -0.03 c 0.003,-0.232 0.059,-0.514 0.264,-0.768 v 0 c 0.244,-0.3 0.601,-0.453 1.067,-0.453 v 0 h 15.517 c 0.558,0 1.267,0.217 1.485,1.243 v 0 l 0.14,0.659 c 0.099,0.466 0.024,0.852 -0.217,1.156 v 0 c -0.245,0.3 -0.604,0.452 -1.071,0.452 v 0 h -13.08 l 1.889,8.891 h 11.363 c 0.821,0 1.347,0.43 1.521,1.239 v 0 l 0.14,0.662 c 0.099,0.474 0.024,0.871 -0.225,1.179 v 0 c -0.249,0.307 -0.617,0.462 -1.093,0.462 v 0 H 166.81 l 1.813,8.525 h 12.974 c 0.801,0 1.353,0.44 1.514,1.204 v 0 l 0.139,0.661 c 0.102,0.474 0.027,0.87 -0.224,1.181 v 0 c -0.247,0.305 -0.615,0.461 -1.096,0.461 v 0 z"
         id="path156" />
    </clipPath>
    <clipPath
       clipPathUnits="userSpaceOnUse"
       id="clipPath168">
      <path
         d="M 0,242.122 H 841.89 V 0 H 0 Z"
         id="path166" />
    </clipPath>
    <clipPath
       clipPathUnits="userSpaceOnUse"
       id="clipPath188">
      <path
         d="m 214.761,102.173 c -0.329,0 -0.464,-0.109 -0.534,-0.44 v 0 l -3.515,-16.544 c -0.538,-2.53 -0.804,-4.99 -1.139,-6.567 v 0 h -0.111 c -0.622,1.213 -1.286,3.265 -2.232,5.21 v 0 l -8.81,18.085 c -0.087,0.109 -0.165,0.256 -0.46,0.256 v 0 h -0.771 c -0.328,0 -0.462,-0.109 -0.542,-0.476 v 0 l -5.33,-25.09 c -0.08,-0.368 0.008,-0.478 0.337,-0.478 v 0 h 0.735 c 0.365,0 0.499,0.11 0.576,0.478 v 0 L 196.6,93.7 c 0.492,2.311 0.771,4.659 1.067,6.052 v 0 h 0.072 c 0.545,-1.063 1.116,-3.044 1.958,-4.768 v 0 l 9.04,-18.562 c 0.13,-0.255 0.232,-0.293 0.489,-0.293 v 0 h 0.732 c 0.367,0 0.502,0.11 0.58,0.478 v 0 l 5.332,25.09 c 0.078,0.367 -0.008,0.476 -0.375,0.476 v 0 z"
         id="path186" />
    </clipPath>
    <clipPath
       clipPathUnits="userSpaceOnUse"
       id="clipPath198">
      <path
         d="M 0,242.122 H 841.89 V 0 H 0 Z"
         id="path196" />
    </clipPath>
    <clipPath
       clipPathUnits="userSpaceOnUse"
       id="clipPath218">
      <path
         d="m 214.761,103.138 c -0.787,0 -1.311,-0.427 -1.479,-1.202 v 0 l -3.514,-16.545 c -0.261,-1.228 -0.457,-2.425 -0.628,-3.521 v 0 c -0.309,0.763 -0.651,1.582 -1.041,2.386 v 0 l -8.813,18.085 -0.125,0.195 c -0.113,0.149 -0.46,0.602 -1.201,0.602 v 0 h -0.771 c -0.457,0 -1.256,-0.16 -1.485,-1.24 v 0 l -5.332,-25.09 v -0.002 c -0.04,-0.18 -0.155,-0.733 0.216,-1.19 v 0 c 0.243,-0.3 0.601,-0.453 1.066,-0.453 v 0 h 0.735 c 0.822,0 1.349,0.43 1.521,1.244 v 0 l 3.634,17.091 c 0.204,0.968 0.371,1.93 0.519,2.831 v 0 c 0.229,-0.583 0.482,-1.187 0.767,-1.769 v 0 l 9.045,-18.567 c 0.371,-0.742 0.947,-0.83 1.351,-0.83 v 0 h 0.732 c 0.826,0 1.352,0.433 1.523,1.244 v 0 l 5.333,25.09 c 0.038,0.18 0.154,0.728 -0.216,1.186 v 0 c -0.37,0.455 -0.923,0.455 -1.103,0.455 v 0 z m -17.228,-1.929 h 0.158 l 0.24,-0.492 h -0.503 z m 11.952,-24.114 -0.275,0.563 h 0.564 l -0.121,-0.564 z"
         id="path216" />
    </clipPath>
    <clipPath
       clipPathUnits="userSpaceOnUse"
       id="clipPath228">
      <path
         d="M 0,242.122 H 841.89 V 0 H 0 Z"
         id="path226" />
    </clipPath>
    <clipPath
       clipPathUnits="userSpaceOnUse"
       id="clipPath248">
      <path
         d="m 231.781,102.173 c -0.331,0 -0.465,-0.109 -0.542,-0.476 v 0 l -5.335,-25.09 c -0.076,-0.368 0.009,-0.478 0.34,-0.478 v 0 h 15.518 c 0.33,0 0.461,0.11 0.541,0.478 v 0 l 0.14,0.66 c 0.069,0.33 -0.016,0.441 -0.346,0.441 v 0 h -14.269 l 2.299,10.82 h 12.142 c 0.366,0 0.501,0.109 0.577,0.476 v 0 l 0.141,0.661 c 0.072,0.33 -0.009,0.474 -0.374,0.474 v 0 h -12.141 l 2.22,10.458 h 13.758 c 0.328,0 0.498,0.109 0.568,0.439 v 0 l 0.14,0.661 c 0.079,0.367 -0.044,0.476 -0.375,0.476 v 0 z"
         id="path246" />
    </clipPath>
    <clipPath
       clipPathUnits="userSpaceOnUse"
       id="clipPath258">
      <path
         d="M 0,242.122 H 841.89 V 0 H 0 Z"
         id="path256" />
    </clipPath>
    <clipPath
       clipPathUnits="userSpaceOnUse"
       id="clipPath278">
      <path
         d="m 231.781,103.138 c -0.457,0 -1.259,-0.16 -1.486,-1.24 v 0 l -5.334,-25.09 v -0.002 c -0.038,-0.182 -0.154,-0.733 0.218,-1.192 v 0 c 0.243,-0.298 0.6,-0.451 1.065,-0.451 v 0 h 15.518 c 0.456,0 1.257,0.163 1.484,1.243 v 0 l 0.14,0.659 c 0.1,0.466 0.025,0.852 -0.217,1.156 v 0 c -0.243,0.3 -0.605,0.452 -1.072,0.452 v 0 h -13.079 l 1.89,8.891 h 11.361 c 0.823,0 1.349,0.43 1.522,1.241 v 0 l 0.14,0.659 c 0.101,0.474 0.026,0.87 -0.225,1.179 v 0 c -0.248,0.307 -0.617,0.463 -1.093,0.463 v 0 h -10.95 l 1.81,8.525 h 12.977 c 0.799,0 1.351,0.44 1.514,1.204 v 0 l 0.138,0.66 c 0.102,0.473 0.027,0.87 -0.223,1.182 v 0 c -0.249,0.305 -0.616,0.461 -1.096,0.461 v 0 z"
         id="path276" />
    </clipPath>
    <clipPath
       clipPathUnits="userSpaceOnUse"
       id="clipPath288">
      <path
         d="M 0,242.122 H 841.89 V 0 H 0 Z"
         id="path286" />
    </clipPath>
    <clipPath
       clipPathUnits="userSpaceOnUse"
       id="clipPath308">
      <path
         d="m 262.042,102.173 c -0.329,0 -0.462,-0.109 -0.543,-0.476 v 0 l -5.331,-25.09 c -0.08,-0.368 0.008,-0.478 0.338,-0.478 v 0 h 0.808 c 0.329,0 0.464,0.11 0.541,0.478 v 0 l 2.331,10.967 h 6.051 c 3.084,0 4.252,-1.065 4.947,-3.485 v 0 l 2.171,-7.556 c 0.114,-0.331 0.246,-0.404 0.831,-0.404 v 0 h 0.734 c 0.367,0 0.488,0.222 0.359,0.478 v 0 l -2.414,8.143 c -0.45,1.504 -1.099,2.42 -2.37,3.007 v 0 c 4.033,0.331 7.103,2.862 7.998,7.081 v 0 c 0.99,4.658 -1.264,7.335 -5.924,7.335 v 0 z m 0.912,-1.576 h 9.133 c 3.742,0 5.388,-2.092 4.61,-5.759 v 0 c -0.78,-3.668 -3.373,-5.686 -7.041,-5.686 v 0 h -9.136 z"
         id="path306" />
    </clipPath>
    <clipPath
       clipPathUnits="userSpaceOnUse"
       id="clipPath318">
      <path
         d="M 0,242.122 H 841.89 V 0 H 0 Z"
         id="path316" />
    </clipPath>
    <clipPath
       clipPathUnits="userSpaceOnUse"
       id="clipPath338">
      <path
         d="m 262.042,103.138 c -0.456,0 -1.254,-0.16 -1.485,-1.24 v 0 l -5.334,-25.09 c -0.039,-0.182 -0.156,-0.734 0.218,-1.192 v 0 c 0.241,-0.3 0.599,-0.453 1.065,-0.453 v 0 h 0.808 c 0.556,0 1.266,0.217 1.485,1.244 v 0 l 2.169,10.203 h 5.269 c 2.753,0 3.464,-0.861 4.02,-2.787 v 0 l 2.187,-7.602 c 0.361,-1.058 1.259,-1.058 1.742,-1.058 v 0 h 0.734 c 0.52,0 0.955,0.225 1.193,0.612 v 0 c 0.216,0.349 0.24,0.769 0.072,1.17 v 0 l -2.397,8.081 c -0.265,0.884 -0.6,1.591 -1.037,2.163 v 0 c 3.446,1 5.883,3.666 6.687,7.448 v 0 c 0.545,2.559 0.189,4.707 -1.028,6.211 v 0 c -1.214,1.497 -3.233,2.29 -5.841,2.29 v 0 z m 14.779,-3.417 c -0.051,0.064 -0.104,0.125 -0.157,0.183 v 0 c 0.087,-0.085 0.171,-0.178 0.247,-0.273 v 0 c 0.257,-0.316 0.456,-0.685 0.596,-1.102 v 0 c -0.168,0.437 -0.396,0.834 -0.686,1.192 m -13.086,-0.09 h 8.352 c 1.541,0 2.628,-0.377 3.233,-1.123 v 0 c 0.768,-0.945 0.659,-2.41 0.434,-3.472 v 0 0.002 c -0.676,-3.174 -2.842,-4.923 -6.098,-4.923 v 0 h -7.943 z"
         id="path336" />
    </clipPath>
    <clipPath
       clipPathUnits="userSpaceOnUse"
       id="clipPath348">
      <path
         d="M 0,242.122 H 841.89 V 0 H 0 Z"
         id="path346" />
    </clipPath>
    <clipPath
       clipPathUnits="userSpaceOnUse"
       id="clipPath368">
      <path
         d="m 291.85,93.663 -1.902,-8.95 c -1.194,-5.613 1.515,-9.097 7.971,-9.097 v 0 c 6.42,0 10.61,3.484 11.748,8.84 v 0 l 0.912,4.291 c 0.078,0.367 0,0.515 -0.366,0.515 v 0 h -9.064 c -0.329,0 -0.471,-0.148 -0.54,-0.478 v 0 l -0.141,-0.658 c -0.07,-0.333 0.01,-0.478 0.338,-0.478 v 0 h 7.85 l -0.679,-3.192 c -0.94,-4.44 -4.403,-7.263 -9.723,-7.263 v 0 c -5.355,0 -7.579,2.823 -6.58,7.52 v 0 l 1.91,8.987 c 0.974,4.585 4.29,7.41 9.755,7.41 v 0 c 4.732,0 6.566,-1.725 6.858,-5.356 v 0 c 0.07,-0.366 0.208,-0.403 0.56,-0.294 v 0 l 0.746,0.222 c 0.36,0.145 0.494,0.254 0.425,0.623 v 0 c -0.323,4.182 -2.605,6.381 -8.255,6.381 v 0 c -6.493,0 -10.637,-3.447 -11.823,-9.023"
         id="path366" />
    </clipPath>
    <clipPath
       clipPathUnits="userSpaceOnUse"
       id="clipPath378">
      <path
         d="M 0,242.122 H 841.89 V 0 H 0 Z"
         id="path376" />
    </clipPath>
    <clipPath
       clipPathUnits="userSpaceOnUse"
       id="clipPath402">
      <path
         d="m 328.176,102.173 c -0.328,0 -0.463,-0.109 -0.541,-0.476 v 0 l -5.333,-25.09 c -0.077,-0.368 0.01,-0.478 0.339,-0.478 v 0 h 0.808 c 0.329,0 0.463,0.11 0.542,0.478 v 0 l 5.332,25.09 c 0.078,0.367 -0.009,0.476 -0.338,0.476 v 0 z"
         id="path400" />
    </clipPath>
    <clipPath
       clipPathUnits="userSpaceOnUse"
       id="clipPath412">
      <path
         d="M 0,242.122 H 841.89 V 0 H 0 Z"
         id="path410" />
    </clipPath>
    <clipPath
       clipPathUnits="userSpaceOnUse"
       id="clipPath432">
      <path
         d="m 328.176,103.138 c -0.455,0 -1.255,-0.16 -1.484,-1.24 v 0 l -5.332,-25.09 c -0.039,-0.181 -0.157,-0.734 0.214,-1.192 v 0 c 0.243,-0.299 0.602,-0.453 1.067,-0.453 v 0 h 0.806 c 0.458,0 1.258,0.163 1.487,1.244 v 0 l 5.333,25.089 c 0.039,0.181 0.155,0.733 -0.217,1.192 v 0 c -0.241,0.3 -0.601,0.45 -1.065,0.45 v 0 z"
         id="path430" />
    </clipPath>
    <clipPath
       clipPathUnits="userSpaceOnUse"
       id="clipPath442">
      <path
         d="M 0,242.122 H 841.89 V 0 H 0 Z"
         id="path440" />
    </clipPath>
    <clipPath
       clipPathUnits="userSpaceOnUse"
       id="clipPath462">
      <path
         d="m 353.085,102.357 c -0.328,0 -0.535,-0.111 -0.717,-0.441 v 0 L 336.82,76.568 c -0.165,-0.256 -0.168,-0.441 0.237,-0.441 v 0 h 0.623 c 0.55,0 0.713,0.075 0.93,0.406 v 0 l 4.952,8.108 h 12.176 l 1.507,-8.108 c 0.04,-0.331 0.208,-0.406 0.757,-0.406 v 0 h 0.66 c 0.405,0 0.517,0.185 0.424,0.441 v 0 l -4.774,25.348 c -0.04,0.33 -0.162,0.441 -0.528,0.441 v 0 z m -0.729,-3.263 c 0.367,0.695 0.553,1.391 0.628,1.577 v 0 h 0.11 c -10e-4,-0.186 -0.077,-0.882 -0.013,-1.615 v 0 L 355.53,86.07 h -11.152 z"
         id="path460" />
    </clipPath>
    <clipPath
       clipPathUnits="userSpaceOnUse"
       id="clipPath472">
      <path
         d="M 0,242.122 H 841.89 V 0 H 0 Z"
         id="path470" />
    </clipPath>
    <clipPath
       clipPathUnits="userSpaceOnUse"
       id="clipPath492">
      <path
         d="m 353.085,103.322 c -0.695,0 -1.222,-0.318 -1.54,-0.901 v 0 l -15.543,-25.34 c -0.369,-0.579 -0.267,-1.029 -0.117,-1.306 v 0 c 0.125,-0.228 0.443,-0.612 1.172,-0.612 v 0 h 0.623 c 0.73,0 1.276,0.142 1.752,0.865 v 0 l 4.67,7.648 h 10.835 l 1.35,-7.256 c 0.148,-1.257 1.327,-1.257 1.715,-1.257 v 0 h 0.66 c 0.672,0 1.023,0.299 1.202,0.552 v 0 c 0.215,0.308 0.272,0.7 0.159,1.09 v 0 l -4.755,25.264 c -0.112,0.797 -0.651,1.253 -1.484,1.253 v 0 z m -0.665,-5.968 1.946,-10.319 h -8.264 z"
         id="path490" />
    </clipPath>
    <clipPath
       clipPathUnits="userSpaceOnUse"
       id="clipPath502">
      <path
         d="M 0,242.122 H 841.89 V 0 H 0 Z"
         id="path500" />
    </clipPath>
    <clipPath
       clipPathUnits="userSpaceOnUse"
       id="clipPath522">
      <path
         d="m 336.641,112.594 -7.033,-3.926 c -0.287,-0.148 -0.312,-0.257 -0.185,-0.513 v 0 l 0.206,-0.304 c -0.004,0.004 -0.007,0.007 -0.01,0.011 v 0 l 0.079,-0.116 -0.069,0.105 c 0.114,-0.135 0.261,-0.134 0.569,-0.026 v 0 l 7.326,3.741 c 0.322,0.147 0.356,0.293 0.19,0.55 v 0 l -0.282,0.406 c -0.078,0.143 -0.195,0.199 -0.333,0.199 v 0 c -0.138,0 -0.296,-0.056 -0.458,-0.127"
         id="path520" />
    </clipPath>
    <clipPath
       clipPathUnits="userSpaceOnUse"
       id="clipPath532">
      <path
         d="M 0,242.122 H 841.89 V 0 H 0 Z"
         id="path530" />
    </clipPath>
    <clipPath
       clipPathUnits="userSpaceOnUse"
       id="clipPath552">
      <path
         d="m 336.244,113.473 -7.077,-3.946 c -0.753,-0.387 -0.978,-1.06 -0.604,-1.808 v 0 l 0.334,-0.51 0.005,0.005 c 0.246,-0.284 0.56,-0.429 0.938,-0.429 v 0 c 0.204,0 0.43,0.044 0.675,0.128 v 0 l 7.406,3.774 c 0.427,0.193 0.699,0.477 0.807,0.844 v 0 c 0.107,0.358 0.039,0.73 -0.222,1.134 v 0 l -0.259,0.376 c -0.14,0.226 -0.484,0.642 -1.131,0.642 v 0 c -0.246,0 -0.536,-0.06 -0.872,-0.21 m 0.846,-1.058 c 0.023,0.019 0.042,0.033 0.054,0.04 v 0 l 0.466,-0.846 z"
         id="path550" />
    </clipPath>
    <clipPath
       clipPathUnits="userSpaceOnUse"
       id="clipPath562">
      <path
         d="M 0,242.122 H 841.89 V 0 H 0 Z"
         id="path560" />
    </clipPath>
  </defs>
  <g
     id="g8"
     transform="matrix(1.3333333,0,0,-1.3333333,0,322.82933)">
    <g
       id="g10">
      <g
         id="g12"
         clip-path="url(#clipPath16)">
        <g
           id="g18"
           transform="translate(491.5493,107.7462)">
          <path
             d="m 0,0 6.026,38.11 c 0.278,1.778 0.572,3.449 0.897,5.021 0.318,1.572 0.683,3.196 1.096,4.875 1.58,0.858 3.255,1.588 5.018,2.196 1.77,0.603 3.572,1.099 5.414,1.492 1.842,0.389 3.692,0.675 5.534,0.862 1.842,0.186 3.637,0.277 5.375,0.277 1.834,0 3.541,-0.087 5.121,-0.262 l -2.667,-10.42 c -0.524,0.075 -1.104,0.131 -1.739,0.159 -0.635,0.031 -1.278,0.047 -1.921,0.047 -0.739,0 -1.509,-0.035 -2.311,-0.103 -0.802,-0.071 -1.588,-0.171 -2.358,-0.31 -0.77,-0.135 -1.508,-0.305 -2.207,-0.512 C 20.579,41.23 19.952,41 19.404,40.746 19.134,39.694 18.88,38.554 18.642,37.336 18.412,36.117 18.197,34.922 17.999,33.751 L 12.64,0 Z"
             style="fill:#67c4a9;fill-opacity:1;fill-rule:nonzero;stroke:none"
             id="path20" />
        </g>
        <g
           id="g22"
           transform="translate(558.4305,141.7154)">
          <path
             d="m 0,0 c -0.056,-0.536 -0.127,-1.1 -0.222,-1.683 -0.04,-0.294 -0.096,-0.639 -0.175,-1.04 -0.079,-0.401 -0.167,-0.747 -0.262,-1.04 -0.762,-0.096 -1.643,-0.199 -2.636,-0.306 -1,-0.107 -2.025,-0.206 -3.073,-0.294 -1.055,-0.087 -2.103,-0.17 -3.136,-0.246 -1.032,-0.079 -1.969,-0.139 -2.81,-0.179 l -8.837,-0.436 c 0.31,2.048 0.723,3.938 1.231,5.665 0.508,1.726 1.23,3.219 2.175,4.478 0.953,1.258 2.184,2.238 3.708,2.941 1.516,0.703 3.454,1.052 5.796,1.052 1.5,0 2.779,-0.159 3.835,-0.48 C -3.358,8.106 -2.493,7.638 -1.834,7.026 -1.167,6.411 -0.683,5.645 -0.381,4.728 -0.079,3.811 0.071,2.755 0.071,1.564 0.071,1.06 0.048,0.536 0,0 m 11.6,9.19 c -0.62,2.06 -1.668,3.807 -3.144,5.24 -1.477,1.433 -3.438,2.533 -5.9,3.295 -2.461,0.758 -5.533,1.139 -9.217,1.139 -4.272,0 -7.956,-0.508 -11.052,-1.52 -3.097,-1.016 -5.709,-2.604 -7.844,-4.772 -2.136,-2.167 -3.867,-4.938 -5.193,-8.312 -1.334,-3.379 -2.366,-7.428 -3.104,-12.148 -0.238,-1.544 -0.421,-3.037 -0.556,-4.478 -0.135,-1.445 -0.206,-2.842 -0.206,-4.188 0,-2.711 0.309,-5.18 0.921,-7.403 0.619,-2.228 1.643,-4.133 3.072,-5.725 1.437,-1.588 3.327,-2.818 5.669,-3.688 2.342,-0.869 5.248,-1.302 8.718,-1.302 2.477,0 4.795,0.064 6.939,0.191 2.143,0.127 4.16,0.282 6.034,0.468 1.866,0.187 3.604,0.393 5.208,0.627 1.596,0.235 3.089,0.469 4.478,0.703 l 0.468,9.809 c -2.675,-0.333 -5.581,-0.647 -8.709,-0.937 -3.128,-0.293 -6.439,-0.44 -9.909,-0.44 -1.675,0 -3.168,0.123 -4.478,0.365 -1.31,0.246 -2.413,0.675 -3.318,1.29 -0.913,0.612 -1.604,1.441 -2.08,2.485 -0.485,1.044 -0.723,2.378 -0.723,3.998 0,0.309 0.016,0.635 0.032,0.964 0.024,0.334 0.047,0.675 0.087,1.025 l 8.488,0.44 c 1.175,0.06 2.461,0.139 3.866,0.25 1.405,0.104 2.85,0.223 4.335,0.35 1.477,0.127 2.985,0.274 4.502,0.44 1.524,0.163 3.001,0.33 4.422,0.497 1.421,0.166 2.779,0.341 4.057,0.528 1.278,0.182 2.414,0.365 3.406,0.539 0.175,0.703 0.334,1.406 0.469,2.108 0.135,0.703 0.254,1.394 0.349,2.08 0.278,1.656 0.484,3.244 0.635,4.756 0.143,1.513 0.214,2.962 0.214,4.347 0,2.592 -0.309,4.923 -0.936,6.979"
             style="fill:#67c4a9;fill-opacity:1;fill-rule:nonzero;stroke:none"
             id="path24" />
        </g>
        <g
           id="g26"
           transform="translate(609.0674,141.7154)">
          <path
             d="m 0,0 c -0.056,-0.536 -0.127,-1.1 -0.222,-1.683 -0.04,-0.294 -0.096,-0.639 -0.175,-1.04 -0.079,-0.401 -0.167,-0.747 -0.262,-1.04 -0.762,-0.096 -1.643,-0.199 -2.636,-0.306 -1,-0.107 -2.024,-0.206 -3.072,-0.294 -1.056,-0.087 -2.104,-0.17 -3.137,-0.246 -1.032,-0.079 -1.969,-0.139 -2.81,-0.179 l -8.837,-0.436 c 0.31,2.048 0.723,3.938 1.231,5.665 0.508,1.726 1.23,3.219 2.175,4.478 0.953,1.258 2.184,2.238 3.708,2.941 1.516,0.703 3.454,1.052 5.796,1.052 1.5,0 2.779,-0.159 3.835,-0.48 C -3.358,8.106 -2.493,7.638 -1.834,7.026 -1.167,6.411 -0.683,5.645 -0.381,4.728 -0.079,3.811 0.071,2.755 0.071,1.564 0.071,1.06 0.048,0.536 0,0 m 11.6,9.19 c -0.62,2.06 -1.668,3.807 -3.144,5.24 -1.477,1.433 -3.438,2.533 -5.899,3.295 -2.462,0.758 -5.534,1.139 -9.218,1.139 -4.272,0 -7.956,-0.508 -11.052,-1.52 -3.096,-1.016 -5.709,-2.604 -7.844,-4.772 -2.136,-2.167 -3.867,-4.938 -5.193,-8.312 -1.334,-3.379 -2.366,-7.428 -3.104,-12.148 -0.238,-1.544 -0.421,-3.037 -0.556,-4.478 -0.135,-1.445 -0.206,-2.842 -0.206,-4.188 0,-2.711 0.309,-5.18 0.921,-7.403 0.619,-2.228 1.643,-4.133 3.072,-5.725 1.437,-1.588 3.327,-2.818 5.669,-3.688 2.342,-0.869 5.248,-1.302 8.718,-1.302 2.477,0 4.795,0.064 6.939,0.191 2.143,0.127 4.16,0.282 6.034,0.468 1.866,0.187 3.604,0.393 5.208,0.627 1.596,0.235 3.089,0.469 4.478,0.703 l 0.468,9.809 c -2.675,-0.333 -5.581,-0.647 -8.709,-0.937 -3.128,-0.293 -6.439,-0.44 -9.909,-0.44 -1.675,0 -3.168,0.123 -4.478,0.365 -1.31,0.246 -2.413,0.675 -3.318,1.29 -0.913,0.612 -1.604,1.441 -2.08,2.485 -0.485,1.044 -0.723,2.378 -0.723,3.998 0,0.309 0.016,0.635 0.032,0.964 0.024,0.334 0.047,0.675 0.087,1.025 l 8.488,0.44 c 1.175,0.06 2.461,0.139 3.866,0.25 1.405,0.104 2.85,0.223 4.335,0.35 1.477,0.127 2.985,0.274 4.502,0.44 1.524,0.163 3.001,0.33 4.422,0.497 1.421,0.166 2.779,0.341 4.057,0.528 1.278,0.182 2.414,0.365 3.406,0.539 0.175,0.703 0.334,1.406 0.469,2.108 0.135,0.703 0.254,1.394 0.349,2.08 0.278,1.656 0.484,3.244 0.635,4.756 0.143,1.513 0.214,2.962 0.214,4.347 0,2.592 -0.309,4.923 -0.936,6.979"
             style="fill:#67c4a9;fill-opacity:1;fill-rule:nonzero;stroke:none"
             id="path28" />
        </g>
        <g
           id="g30"
           transform="translate(636.472,107.7462)">
          <path
             d="m 0,0 h -12.671 l 6.026,38.11 c 0.27,1.778 0.571,3.449 0.889,5.021 0.325,1.572 0.699,3.196 1.127,4.875 3.263,1.64 6.876,2.854 10.846,3.644 3.977,0.79 8.233,1.183 12.782,1.183 3.589,0 6.542,-0.305 8.869,-0.921 2.318,-0.615 4.152,-1.484 5.502,-2.604 1.341,-1.123 2.278,-2.469 2.794,-4.041 0.516,-1.572 0.779,-3.303 0.779,-5.196 0,-1.052 -0.064,-2.156 -0.191,-3.307 -0.127,-1.151 -0.294,-2.342 -0.484,-3.569 L 30.996,0 H 18.293 l 5.065,32.024 c 0.135,0.818 0.238,1.576 0.31,2.267 0.063,0.694 0.103,1.349 0.103,1.977 0,1.072 -0.143,2 -0.429,2.778 -0.286,0.783 -0.762,1.422 -1.437,1.918 -0.667,0.5 -1.58,0.869 -2.715,1.111 -1.143,0.247 -2.573,0.37 -4.288,0.37 -0.706,0 -1.421,-0.032 -2.151,-0.088 C 12.012,42.298 11.29,42.21 10.583,42.091 9.869,41.976 9.194,41.829 8.543,41.655 7.9,41.476 7.328,41.274 6.82,41.039 6.55,39.983 6.288,38.848 6.042,37.629 5.804,36.407 5.581,35.212 5.383,34.041 Z"
             style="fill:#67c4a9;fill-opacity:1;fill-rule:nonzero;stroke:none"
             id="path32" />
        </g>
        <g
           id="g34"
           transform="translate(683.5818,159.877)">
          <path
             d="M 0,0 H 12.791 L 4.534,-52.131 H -8.257 Z"
             style="fill:#67c4a9;fill-opacity:1;fill-rule:nonzero;stroke:none"
             id="path36" />
        </g>
        <g
           id="g38"
           transform="translate(710.4222,107.7462)">
          <path
             d="m 0,0 h -12.671 l 6.034,38.11 c 0.27,1.778 0.563,3.449 0.889,5.021 0.325,1.572 0.698,3.196 1.127,4.875 3.255,1.64 6.876,2.854 10.846,3.644 3.969,0.79 8.225,1.183 12.774,1.183 3.589,0 6.55,-0.305 8.869,-0.921 2.326,-0.615 4.16,-1.484 5.502,-2.604 1.349,-1.123 2.278,-2.469 2.794,-4.041 0.524,-1.572 0.779,-3.303 0.779,-5.196 0,-1.052 -0.064,-2.156 -0.191,-3.307 -0.127,-1.151 -0.286,-2.342 -0.484,-3.569 L 31.004,0 H 18.301 l 5.057,32.024 c 0.143,0.818 0.246,1.576 0.31,2.267 0.071,0.694 0.103,1.349 0.103,1.977 0,1.072 -0.143,2 -0.421,2.778 -0.286,0.783 -0.762,1.422 -1.437,1.918 -0.675,0.5 -1.58,0.869 -2.723,1.111 -1.143,0.247 -2.573,0.37 -4.288,0.37 -0.698,0 -1.421,-0.032 -2.151,-0.088 C 12.02,42.298 11.298,42.21 10.583,42.091 9.869,41.976 9.194,41.829 8.551,41.655 7.908,41.476 7.328,41.274 6.82,41.039 6.55,39.983 6.288,38.848 6.05,37.629 5.804,36.407 5.581,35.212 5.391,34.041 Z"
             style="fill:#67c4a9;fill-opacity:1;fill-rule:nonzero;stroke:none"
             id="path40" />
        </g>
        <g
           id="g42"
           transform="translate(489.9819,163.9459)">
          <path
             d="m 0,0 2.898,10.687 c -3.343,0.718 -6.733,1.238 -10.186,1.548 -3.454,0.313 -7.082,0.468 -10.893,0.468 -3.684,0 -6.979,-0.29 -9.877,-0.877 -2.898,-0.584 -5.471,-1.489 -7.717,-2.707 -2.239,-1.219 -4.192,-2.767 -5.852,-4.641 -1.659,-1.874 -3.104,-4.097 -4.335,-6.673 -1.222,-2.577 -2.278,-5.518 -3.144,-8.825 -0.865,-3.307 -1.619,-6.999 -2.271,-11.08 -0.404,-2.632 -0.722,-5.097 -0.944,-7.391 -0.231,-2.291 -0.342,-4.442 -0.342,-6.455 0,-3.609 0.413,-6.729 1.231,-9.365 0.818,-2.636 2.151,-4.811 3.993,-6.526 1.85,-1.719 4.264,-2.993 7.249,-3.823 2.985,-0.826 6.646,-1.242 10.973,-1.242 2.191,0 4.279,0.039 6.28,0.119 2.001,0.075 3.874,0.258 5.621,0.54 1.747,0.281 3.342,0.71 4.803,1.286 1.453,0.575 2.739,1.357 3.859,2.342 1.127,0.984 2.064,2.215 2.811,3.688 0.754,1.473 1.294,3.255 1.627,5.343 l 2.056,12.997 c 1.042,6.592 -4.053,12.556 -10.727,12.556 l -1.978,-11.752 -1.53,-9.704 c -0.159,-0.957 -0.357,-1.798 -0.611,-2.533 -0.254,-0.73 -0.683,-1.35 -1.279,-1.858 -0.595,-0.508 -1.413,-0.893 -2.469,-1.155 -1.056,-0.262 -2.453,-0.397 -4.184,-0.397 -2.755,0 -5.026,0.282 -6.82,0.838 -1.802,0.556 -3.216,1.353 -4.264,2.397 -1.04,1.045 -1.77,2.303 -2.183,3.776 -0.405,1.476 -0.611,3.12 -0.611,4.934 0,1.659 0.127,3.438 0.381,5.343 0.254,1.902 0.548,3.915 0.881,6.042 0.349,2.243 0.715,4.379 1.112,6.396 0.389,2.02 0.873,3.894 1.461,5.621 0.587,1.727 1.325,3.283 2.223,4.668 0.897,1.386 2.032,2.573 3.398,3.557 1.365,0.985 3.017,1.743 4.946,2.267 1.929,0.528 4.232,0.794 6.907,0.794 2.906,0 5.844,-0.091 8.797,-0.266 C -5.756,0.762 -2.85,0.449 0,0"
             style="fill:#67c4a9;fill-opacity:1;fill-rule:nonzero;stroke:none"
             id="path44" />
        </g>
        <g
           id="g46"
           transform="translate(786.4192,145.6096)">
          <path
             d="M 0,0 C -0.143,-1.223 -0.318,-2.418 -0.508,-3.589 L -4.049,-26.01 c -0.548,-0.174 -1.136,-0.329 -1.763,-0.468 -0.619,-0.135 -1.254,-0.254 -1.897,-0.35 -0.643,-0.099 -1.286,-0.174 -1.922,-0.234 -0.635,-0.059 -1.222,-0.087 -1.77,-0.087 -2.144,0 -3.914,0.206 -5.296,0.627 -1.389,0.421 -2.485,1.016 -3.295,1.786 -0.81,0.771 -1.373,1.7 -1.683,2.783 -0.309,1.08 -0.468,2.287 -0.468,3.613 0,1.056 0.071,2.175 0.222,3.366 0.143,1.191 0.326,2.441 0.54,3.748 0.214,1.345 0.46,2.683 0.746,4.009 0.286,1.326 0.651,2.58 1.096,3.763 0.452,1.179 1.008,2.271 1.667,3.275 0.667,1.009 1.477,1.878 2.43,2.62 0.96,0.743 2.096,1.318 3.414,1.727 1.318,0.413 2.85,0.616 4.612,0.616 0.699,0 1.414,-0.028 2.136,-0.088 C -4.557,4.637 -3.859,4.549 -3.176,4.434 -2.493,4.315 -1.858,4.176 -1.27,4.009 -0.691,3.843 -0.167,3.644 0.278,3.41 0.238,2.354 0.151,1.219 0,0 m 9.662,12.338 c -1.572,0.603 -3.215,1.1 -4.93,1.493 -1.723,0.389 -3.478,0.674 -5.272,0.861 -1.794,0.187 -3.549,0.278 -5.272,0.278 -4.176,0 -7.852,-0.425 -11.036,-1.274 -3.175,-0.846 -5.923,-2.287 -8.225,-4.315 -2.302,-2.029 -4.2,-4.724 -5.693,-8.079 -1.492,-3.358 -2.636,-7.535 -3.437,-12.528 -0.524,-3.319 -0.786,-6.265 -0.786,-8.841 0,-3.22 0.405,-5.939 1.214,-8.15 0.81,-2.215 2.025,-4.002 3.645,-5.359 1.619,-1.354 3.644,-2.33 6.073,-2.926 2.43,-0.595 5.248,-0.893 8.472,-0.893 1.54,0 3.183,0.103 4.914,0.306 1.739,0.206 3.398,0.476 4.978,0.805 l -0.23,-1.52 c -0.508,-3.219 -1.675,-5.637 -3.501,-7.245 -1.826,-1.611 -4.446,-2.417 -7.86,-2.417 -1.485,0 -4.09,0.109 -5.709,0.196 -8.93,0 -10.782,-9.049 -10.782,-9.049 1.604,-0.262 3.311,-0.504 5.121,-0.718 1.803,-0.215 3.66,-0.389 5.574,-0.524 1.913,-0.139 3.827,-0.207 5.74,-0.207 1.914,0 3.771,0.103 5.574,0.306 1.802,0.206 3.525,0.56 5.152,1.056 1.628,0.496 3.152,1.159 4.566,1.989 1.413,0.829 2.683,1.869 3.803,3.12 1.127,1.246 2.072,2.731 2.842,4.446 0.77,1.719 1.342,3.708 1.715,5.974 l 6.526,41.123 c 0.27,1.779 0.5,3.45 0.683,5.022 0.191,1.572 0.341,3.196 0.46,4.875 -1.31,0.857 -2.747,1.588 -4.319,2.195"
             style="fill:#67c4a9;fill-opacity:1;fill-rule:nonzero;stroke:none"
             id="path48" />
        </g>
        <g
           id="g50"
           transform="translate(683.8292,163.7116)">
          <path
             d="m 0,0 c 7.327,1.504 11.462,0.531 14.451,4.164 2.986,3.633 2.462,9 -1.17,11.988 C 9.647,19.138 4.28,18.614 1.293,14.983 -1.694,11.348 0.06,7.479 0,0"
             style="fill:#67c4a9;fill-opacity:1;fill-rule:nonzero;stroke:none"
             id="path52" />
        </g>
        <g
           id="g54"
           transform="translate(620.5271,79.0293)">
          <path
             d="m 0,0 5.601,0.262 c 2.418,0.102 4.748,0.297 6.992,0.582 0.031,0.341 0.047,0.836 0.047,1.487 0,1.854 -0.451,3.276 -1.356,4.267 C 10.325,7.668 8.712,8.203 6.445,8.203 4.392,8.203 2.87,7.767 1.879,6.896 1.387,6.475 1.006,5.921 0.737,5.23 0.451,4.51 0.258,3.753 0.154,2.96 0.051,2.168 0,1.18 0,0 m 5.946,-11.188 c -2.632,0 -4.662,0.671 -6.089,2.01 -0.651,0.627 -1.177,1.406 -1.582,2.342 -0.729,1.681 -1.094,3.856 -1.094,6.526 0,1.99 0.159,3.649 0.476,4.976 0.317,1.328 0.833,2.435 1.546,3.323 0.721,0.895 1.669,1.547 2.842,1.956 1.173,0.407 2.64,0.612 4.4,0.612 2.751,0 4.852,-0.563 6.302,-1.689 0.698,-0.53 1.253,-1.197 1.666,-1.996 0.412,-0.786 0.705,-1.644 0.88,-2.575 0.174,-0.931 0.26,-2.023 0.26,-3.275 0,-0.562 -0.019,-1.233 -0.059,-2.008 C 14.297,-1.193 12.633,-1.395 10.5,-1.593 8.384,-1.791 6.58,-1.922 5.09,-1.985 L 0.071,-2.188 c 0.055,-0.729 0.147,-1.395 0.274,-1.997 0.269,-1.291 0.721,-2.266 1.356,-2.924 0.562,-0.547 1.272,-0.958 2.128,-1.231 0.856,-0.273 1.938,-0.41 3.246,-0.41 2.053,0 4.546,0.199 7.481,0.595 l 0.26,-2.331 c -1.569,-0.238 -2.977,-0.412 -4.221,-0.523 -1.3,-0.119 -2.85,-0.179 -4.649,-0.179"
             style="fill:#555a61;fill-opacity:1;fill-rule:nonzero;stroke:none"
             id="path56" />
        </g>
        <g
           id="g58"
           transform="translate(644.2618,82.8092)">
          <path
             d="M 0,0 V -14.682 H -2.878 V 1.391 c 0,1.245 0.036,2.449 0.107,3.614 1.229,0.539 2.676,0.971 4.34,1.296 1.618,0.317 3.358,0.476 5.221,0.476 2.965,-0.032 5.018,-0.595 6.16,-1.688 0.404,-0.388 0.719,-0.782 0.946,-1.183 0.225,-0.4 0.401,-0.882 0.528,-1.444 0.143,-0.611 0.231,-1.146 0.262,-1.606 0.04,-0.57 0.059,-1.165 0.059,-1.783 v -13.755 h -2.889 v 13.233 c 0,0.562 -0.02,1.089 -0.059,1.58 C 11.725,1.177 11.511,1.97 11.154,2.509 10.758,3.143 10.145,3.609 9.317,3.906 8.489,4.203 7.325,4.351 5.827,4.351 4.899,4.351 3.877,4.252 2.759,4.054 1.593,3.849 0.702,3.603 0.083,3.317 0.027,2.438 0,1.332 0,0"
             style="fill:#555a61;fill-opacity:1;fill-rule:nonzero;stroke:none"
             id="path60" />
        </g>
        <g
           id="g62"
           transform="translate(667.3428,79.0293)">
          <path
             d="m 0,0 5.601,0.262 c 2.418,0.102 4.748,0.297 6.992,0.582 0.031,0.341 0.047,0.836 0.047,1.487 0,1.854 -0.451,3.276 -1.355,4.267 -0.96,1.07 -2.573,1.605 -4.84,1.605 C 4.392,8.203 2.87,7.767 1.879,6.896 1.387,6.475 1.006,5.921 0.737,5.23 0.452,4.51 0.258,3.753 0.154,2.96 0.051,2.168 0,1.18 0,0 m 5.946,-11.188 c -2.632,0 -4.662,0.671 -6.089,2.01 -0.651,0.627 -1.177,1.406 -1.582,2.342 -0.729,1.681 -1.093,3.856 -1.093,6.526 0,1.99 0.158,3.649 0.475,4.976 0.317,1.328 0.833,2.435 1.546,3.323 0.721,0.895 1.669,1.547 2.842,1.956 1.173,0.407 2.64,0.612 4.4,0.612 2.751,0 4.852,-0.563 6.302,-1.689 0.698,-0.53 1.253,-1.197 1.666,-1.996 0.412,-0.786 0.705,-1.644 0.88,-2.575 0.174,-0.931 0.26,-2.023 0.26,-3.275 0,-0.562 -0.019,-1.233 -0.059,-2.008 C 14.297,-1.193 12.633,-1.395 10.5,-1.593 8.384,-1.791 6.58,-1.922 5.09,-1.985 L 0.071,-2.188 c 0.055,-0.729 0.147,-1.395 0.274,-1.997 0.269,-1.291 0.721,-2.266 1.356,-2.924 0.562,-0.547 1.272,-0.958 2.128,-1.231 0.856,-0.273 1.938,-0.41 3.246,-0.41 2.053,0 4.546,0.199 7.481,0.595 l 0.26,-2.331 c -1.569,-0.238 -2.977,-0.412 -4.221,-0.523 -1.3,-0.119 -2.85,-0.179 -4.649,-0.179"
             style="fill:#555a61;fill-opacity:1;fill-rule:nonzero;stroke:none"
             id="path64" />
        </g>
        <g
           id="g66"
           transform="translate(691.0662,82.8332)">
          <path
             d="M 0,0 V -14.706 H -2.877 V 1.439 c 0,1.356 0.04,2.56 0.119,3.614 2.156,1.134 4.804,1.7 7.944,1.7 0.728,0 1.386,-0.032 1.973,-0.095 L 6.922,4.208 C 6.469,4.264 5.89,4.292 5.186,4.292 4.321,4.292 3.425,4.208 2.497,4.043 1.578,3.876 0.774,3.638 0.083,3.329 0.028,2.449 0,1.34 0,0"
             style="fill:#555a61;fill-opacity:1;fill-rule:nonzero;stroke:none"
             id="path68" />
        </g>
        <g
           id="g70"
           transform="translate(710.7937,87.1971)">
          <path
             d="m 0,0 c -2.022,0 -3.552,-0.44 -4.59,-1.32 -0.5,-0.412 -0.904,-0.967 -1.213,-1.664 -0.555,-1.253 -0.832,-3.009 -0.832,-5.267 0,-1.022 0.036,-1.902 0.106,-2.639 0.167,-1.665 0.552,-2.889 1.154,-3.674 1.047,-1.331 2.926,-1.974 5.637,-1.926 0.761,0 1.606,0.079 2.533,0.238 0.887,0.15 1.688,0.348 2.402,0.594 V -4.28 c 0,1.117 -0.028,2.227 -0.083,3.328 C 4.423,-0.635 3.619,-0.4 2.7,-0.25 1.772,-0.083 0.872,0 0,0 m -8.038,-26.393 0.261,2.294 c 2.806,-0.427 5.209,-0.641 7.207,-0.641 1.164,0 2.116,0.091 2.854,0.273 0.737,0.183 1.32,0.476 1.747,0.88 0.429,0.404 0.73,0.897 0.904,1.48 0.174,0.583 0.262,1.338 0.262,2.265 v 1.759 c -2.03,-0.531 -3.98,-0.797 -5.851,-0.797 -1.633,0 -2.99,0.181 -4.073,0.541 -1.082,0.361 -1.987,0.953 -2.717,1.778 -0.729,0.824 -1.263,1.909 -1.6,3.258 -0.336,1.347 -0.504,3.031 -0.504,5.052 0,2.036 0.181,3.729 0.546,5.076 0.365,1.347 0.944,2.434 1.736,3.257 0.801,0.832 1.784,1.424 2.949,1.772 1.166,0.357 2.605,0.535 4.317,0.535 3.147,0 5.799,-0.566 7.956,-1.7 0.078,-1.236 0.119,-2.441 0.119,-3.614 v -17.797 c 0,-2.005 -0.512,-3.52 -1.535,-4.541 C 6.08,-25.731 5.494,-26.111 4.781,-26.405 3.544,-26.904 1.95,-27.154 0,-27.154 c -2.26,0 -4.939,0.255 -8.038,0.761"
             style="fill:#555a61;fill-opacity:1;fill-rule:nonzero;stroke:none"
             id="path72" />
        </g>
        <g
           id="g74"
           transform="translate(726.3597,89.3013)">
          <path
             d="M 0,0 6.803,-15.919 12.13,0 h 2.925 L 5.197,-28.972 H 2.272 L 5.483,-19.688 -3.079,0 Z"
             style="fill:#555a61;fill-opacity:1;fill-rule:nonzero;stroke:none"
             id="path76" />
        </g>
        <g
           id="g78"
           transform="translate(132.3834,107.9133)">
          <path
             d="m 0,0 -85.234,-47.378 h 74.778 z"
             style="fill:#555a61;fill-opacity:1;fill-rule:nonzero;stroke:none"
             id="path80" />
        </g>
        <g
           id="g82"
           transform="translate(121.7797,182.0116)">
          <path
             d="M 0,0 H -55.058 L -80.291,-115.316 Z"
             style="fill:#555a61;fill-opacity:1;fill-rule:nonzero;stroke:none"
             id="path84" />
        </g>
        <g
           id="g86"
           transform="translate(368.6924,123.6107)">
          <path
             d="m 0,0 c -0.452,-1.25 -1.445,-1.498 -2.633,-1.477 -2.7,0.045 -5.397,0.053 -8.095,0.079 -1.421,0.014 -2.584,0.694 -2.585,2.431 -0.002,1.25 -0.228,2.498 -0.321,3.749 -0.042,0.582 -0.251,0.847 -0.881,0.845 -4.138,-0.02 -8.276,0.004 -12.415,-0.038 -0.347,-0.004 -0.826,-0.328 -1.013,-0.64 -0.812,-1.362 -1.549,-2.769 -2.29,-4.17 -0.756,-1.429 -1.926,-2.169 -3.545,-2.183 -2.669,-0.023 -5.337,-0.072 -8.004,-0.046 -1.668,0.018 -2.003,0.614 -1.166,2.074 2.147,3.739 4.336,7.452 6.513,11.172 5.519,9.428 11.038,18.855 16.566,28.28 0.301,0.514 0.596,1.09 1.045,1.443 0.512,0.402 1.189,0.808 1.805,0.825 2.996,0.086 5.995,0.06 8.993,0.035 1.088,-0.008 1.662,-0.49 1.845,-1.586 0.453,-2.71 0.855,-5.426 1.264,-8.141 0.692,-4.575 1.37,-9.154 2.059,-13.728 C -2.227,14.731 -1.602,10.54 -0.951,6.351 -0.66,4.469 -0.318,2.596 0,0.718 Z m -22.525,15.265 h 8.033 l -0.747,15.88 c 0.038,0.12 -6.788,-14.845 -6.788,-14.845 -0.153,-0.31 -0.3,-0.624 -0.498,-1.035"
             style="fill:#555a61;fill-opacity:1;fill-rule:nonzero;stroke:none"
             id="path88" />
        </g>
        <g
           id="g90"
           transform="translate(306.2382,165.9888)">
          <path
             d="m 0,0 c 3.361,0 6.72,0.034 10.078,-0.012 2.094,-0.03 4.089,-0.571 5.93,-1.578 3.197,-1.75 4.831,-4.534 4.945,-8.108 0.196,-6.296 -1.883,-11.69 -6.804,-15.811 -0.796,-0.667 -1.727,-1.183 -2.622,-1.726 -0.402,-0.246 -0.478,-0.433 -0.315,-0.92 1.455,-4.331 2.893,-8.669 4.266,-13.027 0.474,-1.5 -0.317,-2.587 -1.907,-2.613 -2.998,-0.049 -5.999,-0.034 -8.994,0.056 -1.759,0.051 -2.788,1.047 -3.275,2.926 -0.679,2.6 -1.331,5.208 -2,7.812 -0.11,0.432 -0.229,0.866 -0.382,1.287 -0.632,1.714 -1.697,2.503 -3.533,2.504 -2.331,0.003 -1.776,0.346 -2.271,-1.786 -0.79,-3.403 -1.481,-6.829 -2.222,-10.242 -0.432,-1.992 -1.082,-2.569 -3.131,-2.595 -2.579,-0.031 -5.158,-0.018 -7.738,0.041 -1.289,0.029 -1.741,0.619 -1.478,1.859 1.28,6.045 2.575,12.088 3.885,18.126 1.53,7.062 3.086,14.119 4.624,21.178 0.468,2.146 1.061,2.658 3.226,2.661 3.24,0.011 6.48,0.004 9.718,0.004 z m -4.236,-18.865 c 0.246,-0.072 0.383,-0.145 0.521,-0.145 2.185,-0.007 4.376,-0.099 6.556,0.02 2.779,0.152 4.395,1.66 5.007,4.409 0.52,2.331 -0.625,3.943 -3.012,4.042 -2.21,0.093 -4.429,0.044 -6.644,0.002 -0.255,-0.004 -0.672,-0.321 -0.727,-0.56 -0.595,-2.551 -1.128,-5.113 -1.701,-7.768"
             style="fill:#555a61;fill-opacity:1;fill-rule:nonzero;stroke:none"
             id="path92" />
        </g>
        <g
           id="g94"
           transform="translate(217.495,122.1394)">
          <path
             d="m 0,0 c -2.91,0 -5.82,-0.018 -8.73,0.005 -2.284,0.021 -2.648,0.481 -2.162,2.717 1.559,7.21 3.134,14.415 4.707,21.62 1.236,5.659 2.477,11.315 3.716,16.974 0.448,2.05 1.049,2.567 3.119,2.566 5.938,-0.003 11.878,0.055 17.816,-0.068 3.439,-0.071 6.698,-0.986 9.456,-3.175 3.09,-2.453 4.333,-5.798 4.071,-9.605 C 31.808,28.31 31.246,25.602 30.71,22.914 30.158,20.165 29.632,17.386 28.754,14.733 26.062,6.611 20.245,1.899 11.921,0.521 7.755,-0.2 0,0 0,0 -0.459,0 3.632,0.05 0,0 m 11.423,33.343 c -0.006,-0.048 0.004,0.046 0,0 -0.839,0 -2.517,0.009 -2.517,0.009 C 8.251,33.385 7.977,33.17 7.831,32.49 6.34,25.516 4.816,18.55 3.271,11.588 3.108,10.851 3.291,10.601 4.03,10.626 c 1.885,0.058 3.774,0.049 5.66,0.137 3.636,0.168 6.288,2.064 7.205,5.548 1.016,3.86 1.809,7.787 2.532,11.719 0.452,2.463 -0.929,4.411 -3.371,4.934 -1.506,0.324 -4.633,0.379 -4.633,0.379"
             style="fill:#555a61;fill-opacity:1;fill-rule:nonzero;stroke:none"
             id="path96" />
        </g>
        <g
           id="g98"
           transform="translate(266.3102,149.6944)">
          <path
             d="m 0,0 c 0.456,-0.021 0.837,-0.053 1.217,-0.053 4.051,-0.003 8.099,0.003 12.149,-0.004 1.918,-0.004 2.396,-0.62 1.99,-2.506 -0.389,-1.809 -0.771,-3.621 -1.162,-5.43 -0.454,-2.101 -1.258,-2.746 -3.432,-2.747 -4.079,-0.004 -8.157,-0.025 -12.236,0.019 -0.764,0.009 -1.052,-0.247 -1.186,-0.952 -0.322,-1.691 -0.703,-3.373 -1.086,-5.183 0.505,-0.027 0.879,-0.066 1.255,-0.068 5.219,-0.003 10.436,0 15.655,-0.003 2.478,0 2.81,-0.392 2.303,-2.8 -0.396,-1.898 -0.799,-3.797 -1.258,-5.681 -0.372,-1.527 -1.006,-2.036 -2.585,-2.107 -1.317,-0.059 -2.639,-0.04 -3.958,-0.042 -7.468,-0.003 -14.936,-0.003 -22.403,0 -0.482,0 -0.961,0 -1.439,0.03 -1.57,0.099 -2.005,0.653 -1.669,2.219 0.658,3.093 1.354,6.181 2.027,9.273 2.127,9.771 4.25,19.543 6.378,29.316 0.095,0.435 0.194,0.875 0.334,1.299 0.417,1.237 1.007,1.718 2.306,1.726 4.408,0.029 8.817,0.026 13.225,0.026 4.829,-0.001 9.659,0 14.486,-0.03 1.197,-0.007 1.659,-0.61 1.458,-1.809 -0.167,-1.002 -0.392,-1.993 -0.6,-2.985 -0.24,-1.14 -0.472,-2.281 -0.74,-3.415 C 20.637,6.425 19.834,5.794 18.103,5.791 12.795,5.783 7.487,5.771 2.177,5.804 1.401,5.809 1.055,5.58 0.922,4.81 0.687,3.458 0.356,2.121 0.073,0.779 0.027,0.554 0.028,0.32 0,0"
             style="fill:#555a61;fill-opacity:1;fill-rule:nonzero;stroke:none"
             id="path100" />
        </g>
        <g
           id="g102"
           transform="translate(168.8242,132.8432)">
          <path
             d="m 0,0 c 0.495,-0.029 0.877,-0.072 1.257,-0.072 4.53,-0.004 9.06,-0.002 13.589,-0.004 0.419,-0.002 0.841,-0.002 1.258,-0.04 0.951,-0.09 1.489,-0.717 1.296,-1.662 -0.475,-2.34 -0.972,-4.677 -1.55,-6.994 -0.332,-1.337 -0.997,-1.816 -2.385,-1.88 -1.346,-0.062 -2.698,-0.052 -4.048,-0.052 -6.84,-0.005 -13.679,-0.004 -20.518,-0.002 -0.418,10e-4 -0.84,0.002 -1.258,0.025 -1.653,0.098 -2.073,0.617 -1.729,2.239 0.711,3.344 1.45,6.683 2.178,10.024 1.725,7.928 3.45,15.86 5.177,23.791 0.418,1.917 0.832,3.834 1.266,5.748 0.322,1.421 1.041,2.027 2.522,2.044 2.698,0.025 5.399,0.025 8.097,-0.003 C 6.577,33.147 7.031,32.546 6.725,31.14 4.569,21.189 2.404,11.242 0.244,1.292 0.161,0.917 0.1,0.539 0,0"
             style="fill:#555a61;fill-opacity:1;fill-rule:nonzero;stroke:none"
             id="path104" />
        </g>
        <g
           id="g106"
           transform="translate(204.3438,166.0127)">
          <path
             d="M 0,0 C 1.409,0 2.819,0.022 4.227,-0.008 5.455,-0.033 5.853,-0.39 5.665,-1.611 5.373,-3.526 4.931,-5.417 4.518,-7.312 2.09,-18.485 -0.345,-29.655 -2.781,-40.827 c -0.095,-0.435 -0.205,-0.869 -0.328,-1.299 -0.311,-1.069 -0.989,-1.692 -2.14,-1.696 -2.789,-0.013 -5.578,-0.055 -8.363,-0.011 -1.498,0.02 -1.912,0.6 -1.61,2.071 0.403,1.957 0.843,3.91 1.269,5.863 2.38,10.908 4.759,21.817 7.138,32.724 0.068,0.319 0.126,0.643 0.201,0.962 0.395,1.678 1.022,2.195 2.744,2.22 1.291,0.017 2.579,0.004 3.87,0.004 z"
             style="fill:#555a61;fill-opacity:1;fill-rule:nonzero;stroke:none"
             id="path108" />
        </g>
        <g
           id="g110"
           transform="translate(161.0544,76.6067)">
          <path
             d="m 0,0 5.333,25.09 c 0.077,0.367 0.211,0.477 0.541,0.477 h 15.003 c 0.332,0 0.454,-0.11 0.376,-0.477 l -0.139,-0.661 c -0.071,-0.33 -0.242,-0.438 -0.572,-0.438 H 6.786 L 4.563,13.535 h 12.144 c 0.366,0 0.445,-0.147 0.374,-0.477 L 16.94,12.397 C 16.864,12.032 16.73,11.921 16.363,11.921 H 4.221 L 1.921,1.1 h 14.27 c 0.33,0 0.415,-0.111 0.346,-0.441 L 16.397,0 c -0.079,-0.368 -0.21,-0.478 -0.541,-0.478 H 0.338 C 0.009,-0.478 -0.079,-0.368 0,0"
             style="fill:#555a61;fill-opacity:1;fill-rule:nonzero;stroke:none"
             id="path112" />
        </g>
        <g
           id="g114"
           transform="translate(166.9288,102.1741)">
          <path
             d="m 0,0 c -0.33,0 -0.464,-0.11 -0.542,-0.478 l -5.332,-25.089 c -0.079,-0.368 0.008,-0.478 0.338,-0.478 H 9.981 c 0.33,0 0.463,0.11 0.542,0.478 l 0.138,0.66 c 0.071,0.329 -0.015,0.439 -0.343,0.439 h -14.27 l 2.297,10.822 H 10.49 c 0.365,0 0.5,0.11 0.576,0.476 l 0.141,0.66 c 0.071,0.33 -0.008,0.476 -0.376,0.476 H -1.31 l 2.222,10.457 h 13.757 c 0.329,0 0.5,0.11 0.569,0.439 l 0.141,0.66 C 15.458,-0.11 15.333,0 15.003,0 Z"
             style="fill:#555a61;fill-opacity:1;fill-rule:nonzero;stroke:none"
             id="path116" />
        </g>
        <g
           id="g118"
           transform="translate(166.9289,102.1734)">
          <path
             d="m 0,0 c -0.33,0 -0.464,-0.11 -0.542,-0.476 l -5.332,-25.091 c -0.079,-0.368 0.007,-0.478 0.338,-0.478 H 9.981 c 0.33,0 0.463,0.11 0.541,0.478 l 0.141,0.66 c 0.069,0.331 -0.017,0.441 -0.345,0.441 h -14.27 l 2.297,10.82 H 10.49 c 0.365,0 0.5,0.11 0.576,0.477 l 0.14,0.66 c 0.072,0.33 -0.007,0.476 -0.374,0.476 H -1.31 l 2.221,10.456 h 13.757 c 0.33,0 0.501,0.11 0.569,0.44 l 0.142,0.661 C 15.457,-0.11 15.333,0 15.002,0 Z"
             style="fill:#555a61;fill-opacity:1;fill-rule:nonzero;stroke:none"
             id="path120" />
        </g>
      </g>
    </g>
    <g
       id="g122">
      <g
         id="g124"
         clip-path="url(#clipPath128)">
        <path
           d="m 161.078,102.047 h 21.201 V 76.258 h -21.201 z"
           style="fill:#555a61;fill-opacity:1;fill-rule:nonzero;stroke:none"
           id="path130" />
      </g>
    </g>
    <g
       id="g132">
      <g
         id="g134"
         clip-path="url(#clipPath138)">
        <g
           id="g140"
           transform="translate(176.9095,75.1646)">
          <path
             d="m 0,0 h -15.518 c -0.464,0 -0.822,0.152 -1.065,0.45 -0.372,0.459 -0.255,1.012 -0.216,1.192 l 5.333,25.09 c 0.228,1.081 1.029,1.242 1.485,1.242 H 5.022 c 0.479,0 0.847,-0.154 1.094,-0.462 0.25,-0.31 0.327,-0.706 0.225,-1.181 L 6.2,25.671 C 6.04,24.907 5.489,24.467 4.688,24.467 H -8.287 l -1.811,-8.526 H 0.85 c 0.477,0 0.845,-0.155 1.096,-0.463 0.249,-0.308 0.325,-0.703 0.226,-1.177 L 2.029,13.639 C 1.858,12.829 1.331,12.398 0.508,12.398 H -10.853 L -12.742,3.507 H 0.337 c 0.466,0 0.826,-0.152 1.069,-0.452 0.246,-0.3 0.319,-0.688 0.22,-1.154 L 1.486,1.242 C 1.268,0.216 0.558,0 0,0"
             style="fill:#555a61;fill-opacity:1;fill-rule:nonzero;stroke:none"
             id="path142" />
        </g>
        <g
           id="g144"
           transform="translate(166.9288,103.139)">
          <path
             d="m 0,0 c -0.456,0 -1.258,-0.162 -1.486,-1.242 l -5.332,-25.089 c -0.017,-0.077 -0.047,-0.22 -0.05,-0.394 v -0.028 c 0.003,-0.234 0.059,-0.516 0.266,-0.771 0.242,-0.3 0.6,-0.451 1.066,-0.451 H 9.981 c 0.558,0 1.267,0.216 1.485,1.242 l 0.141,0.66 c 0.098,0.465 0.023,0.852 -0.218,1.153 -0.244,0.3 -0.604,0.452 -1.071,0.452 h -13.08 l 1.889,8.892 H 10.49 c 0.821,0 1.348,0.43 1.52,1.239 l 0.142,0.664 c 0.099,0.473 0.024,0.87 -0.226,1.177 -0.249,0.307 -0.617,0.463 -1.095,0.463 h -10.95 l 1.813,8.526 h 12.975 c 0.8,0 1.352,0.44 1.514,1.204 l 0.138,0.66 c 0.103,0.474 0.027,0.871 -0.224,1.181 C 15.85,-0.156 15.481,0 15.003,0 Z"
             style="fill:#555a61;fill-opacity:1;fill-rule:nonzero;stroke:none"
             id="path146" />
        </g>
        <g
           id="g148"
           transform="translate(166.9289,103.1384)">
          <path
             d="m 0,0 c -0.456,0 -1.258,-0.16 -1.486,-1.24 l -5.333,-25.091 c -0.016,-0.076 -0.045,-0.22 -0.047,-0.394 v -0.029 c 0.002,-0.232 0.058,-0.515 0.263,-0.768 0.244,-0.3 0.601,-0.452 1.067,-0.452 H 9.981 c 0.558,0 1.267,0.215 1.485,1.242 l 0.14,0.659 c 0.099,0.466 0.024,0.853 -0.217,1.155 -0.244,0.3 -0.604,0.452 -1.071,0.452 h -13.08 l 1.889,8.892 H 10.49 c 0.821,0 1.347,0.43 1.52,1.239 l 0.142,0.662 c 0.099,0.474 0.023,0.87 -0.226,1.178 -0.249,0.308 -0.617,0.463 -1.094,0.463 H -0.119 l 1.813,8.525 h 12.974 c 0.801,0 1.353,0.44 1.515,1.204 l 0.138,0.661 c 0.102,0.474 0.027,0.87 -0.224,1.181 C 15.85,-0.156 15.482,0 15.002,0 Z"
             style="fill:#555a61;fill-opacity:1;fill-rule:nonzero;stroke:none"
             id="path150" />
        </g>
      </g>
    </g>
    <g
       id="g152">
      <g
         id="g154"
         clip-path="url(#clipPath158)">
        <path
           d="m 160.061,103.138 h 23.232 V 75.163 h -23.232 z"
           style="fill:#555a61;fill-opacity:1;fill-rule:nonzero;stroke:none"
           id="path160" />
      </g>
    </g>
    <g
       id="g162">
      <g
         id="g164"
         clip-path="url(#clipPath168)">
        <g
           id="g170"
           transform="translate(191.3159,76.6067)">
          <path
             d="m 0,0 5.333,25.09 c 0.077,0.367 0.211,0.477 0.541,0.477 h 0.771 c 0.293,0 0.372,-0.147 0.459,-0.257 L 15.915,7.226 C 16.86,5.282 17.524,3.227 18.147,2.017 h 0.11 c 0.335,1.577 0.601,4.035 1.138,6.566 l 3.516,16.545 c 0.072,0.329 0.205,0.439 0.534,0.439 h 0.733 c 0.368,0 0.454,-0.11 0.378,-0.477 L 19.222,0 c -0.079,-0.368 -0.212,-0.478 -0.58,-0.478 h -0.733 c -0.255,0 -0.358,0.038 -0.487,0.295 l -9.04,18.56 C 7.538,20.101 6.968,22.082 6.423,23.145 H 6.351 C 6.053,21.753 5.775,19.403 5.284,17.093 L 1.65,0 C 1.572,-0.368 1.44,-0.478 1.072,-0.478 H 0.338 C 0.009,-0.478 -0.079,-0.368 0,0"
             style="fill:#555a61;fill-opacity:1;fill-rule:nonzero;stroke:none"
             id="path172" />
        </g>
        <g
           id="g174"
           transform="translate(214.7605,102.1741)">
          <path
             d="m 0,0 c -0.328,0 -0.463,-0.11 -0.535,-0.44 l -3.514,-16.545 c -0.539,-2.53 -0.803,-4.988 -1.138,-6.566 h -0.112 c -0.621,1.211 -1.286,3.265 -2.231,5.209 l -8.81,18.085 C -16.428,-0.148 -16.506,0 -16.8,0 h -0.77 c -0.33,0 -0.464,-0.11 -0.543,-0.478 l -5.331,-25.089 c -0.079,-0.368 0.008,-0.478 0.338,-0.478 h 0.734 c 0.365,0 0.5,0.11 0.577,0.478 l 3.635,17.092 c 0.49,2.312 0.769,4.66 1.065,6.053 h 0.074 c 0.544,-1.062 1.114,-3.044 1.957,-4.768 l 9.042,-18.562 c 0.127,-0.256 0.229,-0.293 0.487,-0.293 h 0.733 c 0.366,0 0.501,0.11 0.58,0.478 L 1.109,-0.478 C 1.188,-0.11 1.102,0 0.734,0 Z"
             style="fill:#555a61;fill-opacity:1;fill-rule:nonzero;stroke:none"
             id="path176" />
        </g>
        <g
           id="g178"
           transform="translate(214.7604,102.1734)">
          <path
             d="m 0,0 c -0.328,0 -0.463,-0.11 -0.533,-0.44 l -3.516,-16.545 c -0.537,-2.53 -0.803,-4.989 -1.138,-6.566 h -0.112 c -0.621,1.212 -1.285,3.265 -2.231,5.21 l -8.81,18.085 C -16.427,-0.148 -16.506,0 -16.8,0 h -0.771 c -0.329,0 -0.463,-0.11 -0.542,-0.476 l -5.331,-25.091 c -0.079,-0.368 0.008,-0.478 0.338,-0.478 h 0.734 c 0.365,0 0.5,0.11 0.577,0.478 l 3.635,17.094 c 0.491,2.311 0.771,4.659 1.067,6.052 h 0.072 c 0.545,-1.063 1.115,-3.045 1.957,-4.768 l 9.04,-18.562 c 0.131,-0.255 0.233,-0.294 0.489,-0.294 h 0.733 c 0.366,0 0.501,0.11 0.58,0.478 L 1.11,-0.476 C 1.188,-0.11 1.102,0 0.734,0 Z"
             style="fill:#555a61;fill-opacity:1;fill-rule:nonzero;stroke:none"
             id="path180" />
        </g>
      </g>
    </g>
    <g
       id="g182">
      <g
         id="g184"
         clip-path="url(#clipPath188)">
        <path
           d="m 191.358,102.047 h 24.469 V 76.258 h -24.469 z"
           style="fill:#555a61;fill-opacity:1;fill-rule:nonzero;stroke:none"
           id="path190" />
      </g>
    </g>
    <g
       id="g192">
      <g
         id="g194"
         clip-path="url(#clipPath198)">
        <g
           id="g200"
           transform="translate(209.9584,75.1646)">
          <path
             d="m 0,0 h -0.733 c -0.403,0 -0.981,0.085 -1.35,0.826 l -9.045,18.57 c -0.284,0.582 -0.538,1.184 -0.767,1.771 -0.148,-0.903 -0.315,-1.865 -0.52,-2.832 L -16.048,1.242 C -16.221,0.43 -16.747,0 -17.57,0 h -0.733 c -0.467,0 -0.825,0.152 -1.067,0.45 -0.373,0.458 -0.256,1.01 -0.217,1.192 l 5.333,25.09 c 0.229,1.081 1.029,1.242 1.486,1.242 h 0.77 c 0.742,0 1.087,-0.453 1.201,-0.602 l 0.126,-0.197 8.812,-18.084 C -1.47,8.287 -1.128,7.47 -0.82,6.706 -0.649,7.8 -0.452,9 -0.191,10.226 l 3.515,16.545 c 0.167,0.777 0.692,1.203 1.478,1.203 h 0.734 c 0.182,0 0.733,0 1.104,-0.456 0.37,-0.458 0.255,-1.005 0.217,-1.186 L 1.523,1.242 C 1.352,0.43 0.825,0 0,0 m -0.475,1.93 h 0.17 l 0.119,0.563 h -0.563 z m -12.054,23.623 h 0.502 l -0.24,0.492 h -0.159 z"
             style="fill:#555a61;fill-opacity:1;fill-rule:nonzero;stroke:none"
             id="path202" />
        </g>
        <g
           id="g204"
           transform="translate(214.7605,103.139)">
          <path
             d="m 0,0 c -0.786,0 -1.31,-0.426 -1.478,-1.204 l -3.515,-16.545 c -0.261,-1.224 -0.458,-2.424 -0.629,-3.52 -0.308,0.765 -0.65,1.582 -1.039,2.385 l -8.812,18.084 -0.126,0.197 C -15.713,-0.454 -16.059,0 -16.8,0 h -0.77 c -0.457,0 -1.258,-0.162 -1.486,-1.242 l -5.334,-25.089 v -0.002 c -0.038,-0.181 -0.153,-0.732 0.217,-1.191 0.243,-0.3 0.601,-0.451 1.067,-0.451 h 0.734 c 0.823,0 1.349,0.43 1.522,1.242 l 3.632,17.092 c 0.206,0.968 0.373,1.93 0.52,2.831 0.23,-0.585 0.483,-1.187 0.768,-1.768 l 9.045,-18.569 c 0.369,-0.742 0.947,-0.828 1.35,-0.828 h 0.733 c 0.825,0 1.352,0.43 1.523,1.242 L 2.055,-1.641 C 2.092,-1.462 2.208,-0.914 1.838,-0.456 1.467,0 0.915,0 0.734,0 Z m -17.226,-1.93 h 0.157 l 0.24,-0.492 h -0.505 z m 11.949,-24.114 -0.274,0.564 h 0.563 l -0.121,-0.565 z"
             style="fill:#555a61;fill-opacity:1;fill-rule:nonzero;stroke:none"
             id="path206" />
        </g>
        <g
           id="g208"
           transform="translate(214.7604,103.1384)">
          <path
             d="m 0,0 c -0.786,0 -1.31,-0.427 -1.478,-1.203 l -3.514,-16.545 c -0.262,-1.227 -0.457,-2.425 -0.628,-3.52 -0.31,0.763 -0.652,1.582 -1.041,2.386 l -8.813,18.084 -0.125,0.196 C -15.713,-0.453 -16.059,0 -16.8,0 h -0.771 c -0.458,0 -1.257,-0.16 -1.485,-1.24 l -5.333,-25.091 v -0.001 c -0.039,-0.181 -0.154,-0.733 0.216,-1.19 0.244,-0.3 0.601,-0.452 1.067,-0.452 h 0.734 c 0.823,0 1.349,0.428 1.522,1.243 l 3.633,17.091 c 0.205,0.967 0.372,1.929 0.52,2.831 0.229,-0.584 0.482,-1.188 0.767,-1.769 l 9.045,-18.567 c 0.37,-0.743 0.947,-0.829 1.35,-0.829 h 0.733 c 0.825,0 1.352,0.431 1.523,1.243 l 5.333,25.09 C 2.092,-1.462 2.208,-0.913 1.838,-0.456 1.467,0 0.915,0 0.734,0 Z m -17.228,-1.93 h 0.159 l 0.239,-0.491 h -0.502 z m 11.952,-24.113 -0.274,0.563 h 0.563 l -0.12,-0.565 z"
             style="fill:#555a61;fill-opacity:1;fill-rule:nonzero;stroke:none"
             id="path210" />
        </g>
      </g>
    </g>
    <g
       id="g212">
      <g
         id="g214"
         clip-path="url(#clipPath218)">
        <path
           d="m 190.323,103.138 h 26.54 V 75.163 h -26.54 z"
           style="fill:#555a61;fill-opacity:1;fill-rule:nonzero;stroke:none"
           id="path220" />
      </g>
    </g>
    <g
       id="g222">
      <g
         id="g224"
         clip-path="url(#clipPath228)">
        <g
           id="g230"
           transform="translate(225.9049,76.6067)">
          <path
             d="m 0,0 5.334,25.09 c 0.077,0.367 0.212,0.477 0.542,0.477 h 15.003 c 0.33,0 0.453,-0.11 0.374,-0.477 l -0.139,-0.661 c -0.07,-0.33 -0.241,-0.438 -0.57,-0.438 H 6.788 L 4.564,13.535 h 12.144 c 0.365,0 0.445,-0.147 0.375,-0.477 L 16.941,12.397 C 16.864,12.032 16.73,11.921 16.365,11.921 H 4.221 L 1.922,1.1 h 14.27 c 0.33,0 0.416,-0.111 0.346,-0.441 L 16.397,0 c -0.077,-0.368 -0.21,-0.478 -0.54,-0.478 H 0.339 C 0.009,-0.478 -0.077,-0.368 0,0"
             style="fill:#555a61;fill-opacity:1;fill-rule:nonzero;stroke:none"
             id="path232" />
        </g>
        <g
           id="g234"
           transform="translate(231.7807,102.1741)">
          <path
             d="m 0,0 c -0.33,0 -0.464,-0.11 -0.542,-0.478 l -5.334,-25.089 c -0.077,-0.368 0.01,-0.478 0.34,-0.478 H 9.981 c 0.33,0 0.462,0.11 0.541,0.478 l 0.139,0.66 c 0.071,0.329 -0.015,0.439 -0.344,0.439 H -3.952 l 2.297,10.822 h 12.144 c 0.365,0 0.501,0.11 0.577,0.476 l 0.141,0.66 c 0.071,0.33 -0.01,0.476 -0.376,0.476 H -1.31 l 2.222,10.457 h 13.757 c 0.329,0 0.498,0.11 0.569,0.439 l 0.14,0.66 C 15.458,-0.11 15.333,0 15.003,0 Z"
             style="fill:#555a61;fill-opacity:1;fill-rule:nonzero;stroke:none"
             id="path236" />
        </g>
        <g
           id="g238"
           transform="translate(231.7819,102.1734)">
          <path
             d="m 0,0 c -0.331,0 -0.466,-0.11 -0.543,-0.476 l -5.334,-25.091 c -0.077,-0.368 0.008,-0.478 0.339,-0.478 H 9.98 c 0.33,0 0.461,0.11 0.542,0.478 l 0.139,0.66 c 0.07,0.331 -0.016,0.441 -0.346,0.441 H -3.954 l 2.299,10.82 h 12.143 c 0.365,0 0.5,0.11 0.576,0.477 l 0.142,0.66 c 0.07,0.33 -0.01,0.476 -0.375,0.476 H -1.31 l 2.221,10.456 h 13.757 c 0.328,0 0.498,0.11 0.569,0.44 l 0.139,0.661 C 15.455,-0.11 15.332,0 15.001,0 Z"
             style="fill:#555a61;fill-opacity:1;fill-rule:nonzero;stroke:none"
             id="path240" />
        </g>
      </g>
    </g>
    <g
       id="g242">
      <g
         id="g244"
         clip-path="url(#clipPath248)">
        <path
           d="M 225.931,102.047 H 247.13 V 76.258 h -21.199 z"
           style="fill:#555a61;fill-opacity:1;fill-rule:nonzero;stroke:none"
           id="path250" />
      </g>
    </g>
    <g
       id="g252">
      <g
         id="g254"
         clip-path="url(#clipPath258)">
        <g
           id="g260"
           transform="translate(241.7615,75.1646)">
          <path
             d="m 0,0 h -15.518 c -0.464,0 -0.822,0.152 -1.065,0.449 -0.372,0.459 -0.255,1.011 -0.217,1.192 v 10e-4 l 5.334,25.09 c 0.228,1.081 1.029,1.242 1.485,1.242 H 5.022 c 0.479,0 0.845,-0.154 1.095,-0.462 0.25,-0.311 0.326,-0.708 0.223,-1.182 L 6.2,25.671 C 6.04,24.907 5.487,24.467 4.687,24.467 H -8.287 l -1.812,-8.526 h 10.95 c 0.478,0 0.844,-0.156 1.095,-0.464 0.249,-0.308 0.325,-0.703 0.224,-1.178 L 2.029,13.64 C 1.858,12.829 1.331,12.398 0.508,12.398 h -11.361 l -1.89,-8.891 H 0.335 c 0.468,0 0.828,-0.152 1.071,-0.452 0.244,-0.3 0.319,-0.688 0.22,-1.154 L 1.485,1.24 C 1.258,0.161 0.457,0 0,0"
             style="fill:#555a61;fill-opacity:1;fill-rule:nonzero;stroke:none"
             id="path262" />
        </g>
        <g
           id="g264"
           transform="translate(231.7807,103.139)">
          <path
             d="m 0,0 c -0.457,0 -1.258,-0.162 -1.486,-1.242 l -5.333,-25.089 v -0.002 c -0.039,-0.181 -0.155,-0.732 0.217,-1.191 0.242,-0.3 0.6,-0.451 1.066,-0.451 H 9.981 c 0.456,0 1.257,0.162 1.484,1.241 l 0.141,0.661 c 0.099,0.465 0.024,0.852 -0.217,1.153 -0.244,0.3 -0.606,0.452 -1.072,0.452 H -2.762 l 1.889,8.892 h 11.362 c 0.822,0 1.349,0.43 1.521,1.241 l 0.14,0.66 c 0.101,0.474 0.026,0.87 -0.224,1.177 -0.248,0.308 -0.617,0.465 -1.095,0.465 h -10.95 l 1.812,8.526 h 12.976 c 0.798,0 1.352,0.44 1.514,1.204 l 0.137,0.659 c 0.104,0.474 0.028,0.87 -0.223,1.182 C 15.85,-0.156 15.481,0 15.003,0 Z"
             style="fill:#555a61;fill-opacity:1;fill-rule:nonzero;stroke:none"
             id="path266" />
        </g>
        <g
           id="g268"
           transform="translate(231.7819,103.1384)">
          <path
             d="M 0,0 C -0.457,0 -1.26,-0.16 -1.488,-1.24 L -6.82,-26.331 v -0.001 c -0.04,-0.182 -0.155,-0.733 0.217,-1.192 0.243,-0.298 0.6,-0.45 1.065,-0.45 H 9.98 c 0.456,0 1.257,0.161 1.483,1.242 l 0.142,0.659 c 0.099,0.466 0.024,0.853 -0.218,1.155 -0.242,0.3 -0.605,0.452 -1.072,0.452 H -2.763 l 1.889,8.892 h 11.362 c 0.822,0 1.349,0.43 1.521,1.24 l 0.14,0.66 c 0.102,0.473 0.026,0.87 -0.224,1.178 -0.248,0.308 -0.618,0.464 -1.094,0.464 h -10.95 l 1.81,8.525 h 12.977 c 0.799,0 1.352,0.44 1.513,1.204 l 0.139,0.659 c 0.102,0.474 0.027,0.871 -0.223,1.183 C 15.849,-0.156 15.481,0 15.001,0 Z"
             style="fill:#555a61;fill-opacity:1;fill-rule:nonzero;stroke:none"
             id="path270" />
        </g>
      </g>
    </g>
    <g
       id="g272">
      <g
         id="g274"
         clip-path="url(#clipPath278)">
        <path
           d="m 224.914,103.138 h 23.232 V 75.163 h -23.232 z"
           style="fill:#555a61;fill-opacity:1;fill-rule:nonzero;stroke:none"
           id="path280" />
      </g>
    </g>
    <g
       id="g282">
      <g
         id="g284"
         clip-path="url(#clipPath288)">
        <g
           id="g290"
           transform="translate(256.1664,76.6067)">
          <path
             d="m 0,0 5.334,25.09 c 0.077,0.367 0.212,0.477 0.542,0.477 h 10.528 c 4.658,0 6.914,-2.678 5.923,-7.336 -0.897,-4.219 -3.966,-6.75 -7.997,-7.081 1.269,-0.585 1.918,-1.503 2.368,-3.006 L 19.112,0 c 0.13,-0.257 0.009,-0.478 -0.359,-0.478 h -0.734 c -0.585,0 -0.717,0.073 -0.829,0.403 l -2.173,7.559 c -0.695,2.418 -1.864,3.483 -4.945,3.483 H 4.019 L 1.688,0 C 1.61,-0.368 1.477,-0.478 1.147,-0.478 H 0.339 C 0.009,-0.478 -0.079,-0.368 0,0 m 20.53,18.231 c 0.779,3.667 -0.867,5.76 -4.609,5.76 H 6.788 L 4.354,12.544 h 9.135 c 3.668,0 6.261,2.018 7.041,5.687"
             style="fill:#555a61;fill-opacity:1;fill-rule:nonzero;stroke:none"
             id="path292" />
        </g>
        <g
           id="g294"
           transform="translate(262.0422,102.1741)">
          <path
             d="m 0,0 c -0.33,0 -0.464,-0.11 -0.542,-0.478 l -5.332,-25.089 c -0.08,-0.368 0.008,-0.478 0.338,-0.478 h 0.809 c 0.328,0 0.461,0.11 0.54,0.478 l 2.332,10.967 h 6.052 c 3.081,0 4.249,-1.064 4.944,-3.485 l 2.172,-7.557 c 0.114,-0.329 0.245,-0.403 0.83,-0.403 h 0.735 c 0.366,0 0.488,0.22 0.358,0.478 l -2.413,8.142 c -0.451,1.506 -1.1,2.421 -2.369,3.008 4.032,0.331 7.102,2.861 7.997,7.081 C 17.442,-2.679 15.185,0 10.527,0 Z m 0.912,-1.577 h 9.133 c 3.742,0 5.388,-2.092 4.609,-5.759 -0.779,-3.668 -3.372,-5.687 -7.041,-5.687 h -9.135 z"
             style="fill:#555a61;fill-opacity:1;fill-rule:nonzero;stroke:none"
             id="path296" />
        </g>
        <g
           id="g298"
           transform="translate(262.0422,102.1734)">
          <path
             d="m 0,0 c -0.33,0 -0.463,-0.11 -0.543,-0.476 l -5.331,-25.091 c -0.08,-0.368 0.008,-0.478 0.338,-0.478 h 0.809 c 0.328,0 0.462,0.11 0.54,0.478 l 2.332,10.967 h 6.05 c 3.084,0 4.251,-1.064 4.946,-3.484 l 2.172,-7.556 c 0.114,-0.331 0.246,-0.405 0.83,-0.405 h 0.735 c 0.366,0 0.488,0.222 0.358,0.478 l -2.413,8.144 c -0.451,1.504 -1.1,2.42 -2.37,3.006 4.033,0.331 7.103,2.863 7.998,7.081 C 17.441,-2.678 15.186,0 10.527,0 Z m 0.912,-1.577 h 9.133 c 3.742,0 5.389,-2.092 4.609,-5.759 -0.779,-3.667 -3.372,-5.686 -7.04,-5.686 h -9.136 z"
             style="fill:#555a61;fill-opacity:1;fill-rule:nonzero;stroke:none"
             id="path300" />
        </g>
      </g>
    </g>
    <g
       id="g302">
      <g
         id="g304"
         clip-path="url(#clipPath308)">
        <path
           d="m 255.849,102.047 h 23.166 V 76.258 h -23.166 z"
           style="fill:#555a61;fill-opacity:1;fill-rule:nonzero;stroke:none"
           id="path310" />
      </g>
    </g>
    <g
       id="g312">
      <g
         id="g314"
         clip-path="url(#clipPath318)">
        <g
           id="g320"
           transform="translate(274.9203,75.1646)">
          <path
             d="m 0,0 h -0.734 c -0.482,0 -1.382,0 -1.743,1.056 l -2.188,7.602 c -0.554,1.927 -1.265,2.786 -4.016,2.786 h -5.272 L -16.122,1.242 C -16.341,0.216 -17.05,0 -17.608,0 h -0.806 c -0.466,0 -0.825,0.152 -1.068,0.45 -0.371,0.459 -0.254,1.012 -0.216,1.192 l 5.334,25.09 c 0.231,1.081 1.03,1.242 1.486,1.242 h 10.529 c 2.604,0 4.625,-0.792 5.84,-2.292 1.216,-1.504 1.57,-3.65 1.026,-6.209 -0.803,-3.782 -3.241,-6.449 -6.687,-7.448 0.438,-0.572 0.775,-1.28 1.038,-2.162 L 1.265,1.779 C 1.433,1.38 1.407,0.958 1.193,0.611 0.954,0.222 0.52,0 0,0 m -13.206,14.951 h 7.941 c 3.258,0 5.422,1.749 6.097,4.923 v -10e-4 c 0.225,1.061 0.334,2.525 -0.432,3.468 -0.604,0.748 -1.692,1.126 -3.233,1.126 h -8.352 z M 1.741,24.74 C 1.797,24.68 1.849,24.619 1.9,24.555 2.189,24.199 2.417,23.801 2.586,23.365 2.447,23.781 2.248,24.15 1.991,24.466 1.914,24.562 1.831,24.653 1.741,24.74"
             style="fill:#555a61;fill-opacity:1;fill-rule:nonzero;stroke:none"
             id="path322" />
        </g>
        <g
           id="g324"
           transform="translate(262.0422,103.139)">
          <path
             d="m 0,0 c -0.456,0 -1.255,-0.162 -1.486,-1.242 l -5.333,-25.089 c -0.039,-0.182 -0.156,-0.733 0.217,-1.192 0.24,-0.301 0.6,-0.452 1.066,-0.452 h 0.809 c 0.555,0 1.265,0.216 1.483,1.242 l 2.169,10.204 h 5.272 c 2.751,0 3.463,-0.86 4.017,-2.787 l 2.187,-7.603 c 0.362,-1.056 1.261,-1.056 1.742,-1.056 h 0.735 c 0.52,0 0.954,0.223 1.193,0.611 0.214,0.349 0.24,0.769 0.072,1.17 l -2.397,8.081 c -0.265,0.884 -0.6,1.592 -1.037,2.163 3.446,1 5.884,3.667 6.686,7.448 0.545,2.56 0.19,4.707 -1.025,6.209 C 15.154,-0.793 13.134,0 10.527,0 Z m 14.779,-3.419 c -0.051,0.064 -0.104,0.125 -0.159,0.185 0.089,-0.086 0.172,-0.178 0.249,-0.273 0.258,-0.318 0.456,-0.686 0.596,-1.103 -0.167,0.437 -0.397,0.834 -0.686,1.191 M 1.693,-3.507 h 8.352 c 1.541,0 2.629,-0.378 3.233,-1.125 0.767,-0.945 0.658,-2.408 0.433,-3.47 V -8.1 c -0.676,-3.175 -2.841,-4.923 -6.098,-4.923 H -0.33 Z"
             style="fill:#555a61;fill-opacity:1;fill-rule:nonzero;stroke:none"
             id="path326" />
        </g>
        <g
           id="g328"
           transform="translate(262.0422,103.1384)">
          <path
             d="m 0,0 c -0.456,0 -1.254,-0.16 -1.485,-1.24 l -5.334,-25.091 c -0.039,-0.182 -0.156,-0.733 0.217,-1.191 0.242,-0.3 0.6,-0.452 1.066,-0.452 h 0.809 c 0.555,0 1.265,0.215 1.484,1.243 l 2.168,10.202 h 5.27 c 2.753,0 3.464,-0.86 4.019,-2.786 l 2.188,-7.602 c 0.361,-1.057 1.26,-1.057 1.741,-1.057 h 0.735 c 0.52,0 0.955,0.224 1.193,0.61 0.216,0.349 0.24,0.77 0.072,1.17 l -2.397,8.081 c -0.265,0.884 -0.6,1.591 -1.037,2.164 3.446,1 5.882,3.666 6.687,7.447 0.544,2.56 0.189,4.707 -1.027,6.211 C 15.154,-0.793 13.134,0 10.527,0 Z m 14.779,-3.417 c -0.051,0.063 -0.104,0.125 -0.157,0.183 0.087,-0.086 0.171,-0.178 0.247,-0.273 0.258,-0.316 0.456,-0.685 0.596,-1.102 -0.167,0.437 -0.397,0.833 -0.686,1.192 M 1.693,-3.507 h 8.352 c 1.541,0 2.628,-0.377 3.233,-1.124 0.767,-0.945 0.658,-2.409 0.433,-3.471 V -8.1 c -0.676,-3.175 -2.841,-4.923 -6.097,-4.923 H -0.33 Z"
             style="fill:#555a61;fill-opacity:1;fill-rule:nonzero;stroke:none"
             id="path330" />
        </g>
      </g>
    </g>
    <g
       id="g332">
      <g
         id="g334"
         clip-path="url(#clipPath338)">
        <path
           d="m 255.174,103.138 h 24.511 V 75.163 h -24.511 z"
           style="fill:#555a61;fill-opacity:1;fill-rule:nonzero;stroke:none"
           id="path340" />
      </g>
    </g>
    <g
       id="g342">
      <g
         id="g344"
         clip-path="url(#clipPath348)">
        <g
           id="g350"
           transform="translate(289.9498,84.7132)">
          <path
             d="m 0,0 1.901,8.95 c 1.185,5.577 5.33,9.024 11.822,9.024 5.649,0 7.935,-2.201 8.254,-6.383 0.069,-0.367 -0.063,-0.478 -0.424,-0.623 l -0.745,-0.221 c -0.354,-0.11 -0.491,-0.074 -0.56,0.294 -0.292,3.632 -2.126,5.356 -6.859,5.356 -5.465,0 -8.78,-2.824 -9.754,-7.411 L 1.725,0 c -0.999,-4.696 1.226,-7.521 6.58,-7.521 5.319,0 8.782,2.825 9.724,7.264 l 0.678,3.193 h -7.85 c -0.329,0 -0.409,0.145 -0.338,0.476 l 0.141,0.66 c 0.069,0.33 0.21,0.476 0.54,0.476 h 9.063 c 0.365,0 0.445,-0.146 0.366,-0.513 L 19.716,-0.257 C 18.578,-5.612 14.39,-9.098 7.97,-9.098 1.513,-9.098 -1.193,-5.612 0,0"
             style="fill:#555a61;fill-opacity:1;fill-rule:nonzero;stroke:none"
             id="path352" />
        </g>
        <g
           id="g354"
           transform="translate(291.8505,93.6633)">
          <path
             d="m 0,0 -1.9,-8.95 c -1.195,-5.612 1.513,-9.098 7.97,-9.098 6.418,0 10.608,3.486 11.747,8.84 l 0.912,4.292 c 0.077,0.368 0,0.514 -0.368,0.514 H 9.3 c -0.33,0 -0.472,-0.146 -0.542,-0.478 L 8.619,-5.538 C 8.548,-5.87 8.627,-6.016 8.957,-6.016 h 7.85 l -0.679,-3.192 c -0.943,-4.438 -4.404,-7.262 -9.723,-7.262 -5.357,0 -7.58,2.824 -6.581,7.52 l 1.909,8.986 c 0.975,4.585 4.289,7.411 9.755,7.411 4.733,0 6.568,-1.725 6.86,-5.356 0.067,-0.366 0.206,-0.404 0.56,-0.294 l 0.744,0.221 c 0.361,0.145 0.494,0.256 0.426,0.623 C 19.756,6.823 17.472,9.023 11.823,9.023 5.331,9.023 1.186,5.576 0,0"
             style="fill:#555a61;fill-opacity:1;fill-rule:nonzero;stroke:none"
             id="path356" />
        </g>
        <g
           id="g358"
           transform="translate(291.8505,93.6633)">
          <path
             d="m 0,0 -1.902,-8.95 c -1.194,-5.613 1.515,-9.097 7.97,-9.097 6.42,0 10.61,3.484 11.749,8.839 l 0.912,4.292 c 0.077,0.367 0,0.514 -0.366,0.514 H 9.299 c -0.329,0 -0.471,-0.147 -0.541,-0.477 L 8.617,-5.537 C 8.548,-5.87 8.627,-6.015 8.955,-6.015 h 7.851 l -0.679,-3.193 c -0.941,-4.439 -4.403,-7.262 -9.723,-7.262 -5.356,0 -7.579,2.823 -6.58,7.52 l 1.909,8.987 c 0.975,4.585 4.291,7.409 9.755,7.409 4.733,0 6.566,-1.724 6.858,-5.356 0.071,-0.365 0.208,-0.403 0.561,-0.293 l 0.745,0.221 c 0.361,0.145 0.494,0.255 0.426,0.623 C 19.755,6.823 17.472,9.023 11.823,9.023 5.33,9.023 1.186,5.576 0,0"
             style="fill:#555a61;fill-opacity:1;fill-rule:nonzero;stroke:none"
             id="path360" />
        </g>
      </g>
    </g>
    <g
       id="g362">
      <g
         id="g364"
         clip-path="url(#clipPath368)">
        <path
           d="m 289.303,102.555 h 23.014 V 75.749 h -23.014 z"
           style="fill:#555a61;fill-opacity:1;fill-rule:nonzero;stroke:none"
           id="path370" />
      </g>
    </g>
    <g
       id="g372">
      <g
         id="g374"
         clip-path="url(#clipPath378)">
        <g
           id="g380"
           transform="translate(297.9196,74.6503)">
          <path
             d="m 0,0 c -3.541,0 -6.127,0.976 -7.682,2.897 -1.451,1.791 -1.876,4.338 -1.231,7.366 l 1.9,8.95 c 1.323,6.221 5.976,9.789 12.766,9.789 5.89,0 8.819,-2.298 9.214,-7.229 0.122,-0.764 -0.223,-1.314 -1.024,-1.638 l -0.085,-0.028 -0.745,-0.222 c -0.182,-0.056 -0.694,-0.216 -1.177,0.076 -0.481,0.289 -0.576,0.798 -0.607,0.965 l -0.013,0.101 c -0.222,2.758 -1.286,4.468 -5.898,4.468 -4.838,0 -7.886,-2.298 -8.81,-6.647 L -5.301,9.863 C -5.73,7.848 -5.513,6.289 -4.657,5.231 -3.73,4.087 -2.051,3.507 0.335,3.507 c 4.703,0 7.902,2.368 8.78,6.5 l 0.431,2.025 H 2.888 c -0.57,0 -0.89,0.25 -1.058,0.459 -0.252,0.308 -0.327,0.707 -0.224,1.186 l 0.139,0.658 c 0.167,0.789 0.71,1.241 1.487,1.241 h 9.059 c 0.475,0 0.842,-0.155 1.09,-0.463 0.382,-0.47 0.262,-1.031 0.222,-1.218 L 12.692,9.605 C 11.413,3.591 6.668,0 0,0"
             style="fill:#555a61;fill-opacity:1;fill-rule:nonzero;stroke:none"
             id="path382" />
        </g>
        <g
           id="g384"
           transform="translate(322.3028,76.6067)">
          <path
             d="m 0,0 5.333,25.09 c 0.078,0.367 0.211,0.477 0.541,0.477 h 0.808 c 0.33,0 0.416,-0.11 0.338,-0.477 L 1.687,0 C 1.61,-0.368 1.475,-0.478 1.146,-0.478 H 0.339 C 0.009,-0.478 -0.079,-0.368 0,0"
             style="fill:#555a61;fill-opacity:1;fill-rule:nonzero;stroke:none"
             id="path386" />
        </g>
        <g
           id="g388"
           transform="translate(328.1772,102.1741)">
          <path
             d="m 0,0 c -0.33,0 -0.463,-0.11 -0.542,-0.478 l -5.332,-25.089 c -0.079,-0.368 0.009,-0.478 0.339,-0.478 h 0.808 c 0.328,0 0.461,0.11 0.54,0.478 L 1.146,-0.478 C 1.223,-0.11 1.137,0 0.808,0 Z"
             style="fill:#555a61;fill-opacity:1;fill-rule:nonzero;stroke:none"
             id="path390" />
        </g>
        <g
           id="g392"
           transform="translate(328.1764,102.1734)">
          <path
             d="m 0,0 c -0.328,0 -0.463,-0.11 -0.542,-0.476 l -5.332,-25.091 c -0.078,-0.368 0.009,-0.478 0.339,-0.478 h 0.808 c 0.328,0 0.462,0.11 0.541,0.478 L 1.147,-0.476 C 1.224,-0.11 1.137,0 0.809,0 Z"
             style="fill:#555a61;fill-opacity:1;fill-rule:nonzero;stroke:none"
             id="path394" />
        </g>
      </g>
    </g>
    <g
       id="g396">
      <g
         id="g398"
         clip-path="url(#clipPath402)">
        <path
           d="m 322.259,102.047 h 7.107 V 76.258 h -7.107 z"
           style="fill:#555a61;fill-opacity:1;fill-rule:nonzero;stroke:none"
           id="path404" />
      </g>
    </g>
    <g
       id="g406">
      <g
         id="g408"
         clip-path="url(#clipPath412)">
        <g
           id="g414"
           transform="translate(323.4493,75.1646)">
          <path
             d="M 0,0 H -0.808 C -1.273,0 -1.633,0.152 -1.874,0.45 -2.246,0.911 -2.128,1.463 -2.09,1.644 l 5.332,25.088 c 0.231,1.081 1.029,1.242 1.485,1.242 h 0.808 c 0.465,0 0.825,-0.15 1.065,-0.45 0.374,-0.46 0.257,-1.011 0.218,-1.192 L 1.485,1.242 C 1.255,0.161 0.456,0 0,0"
             style="fill:#555a61;fill-opacity:1;fill-rule:nonzero;stroke:none"
             id="path416" />
        </g>
        <g
           id="g418"
           transform="translate(328.1772,103.139)">
          <path
             d="m 0,0 c -0.456,0 -1.255,-0.162 -1.486,-1.242 l -5.332,-25.089 c -0.039,-0.182 -0.157,-0.733 0.216,-1.192 0.24,-0.3 0.6,-0.452 1.067,-0.452 h 0.806 c 0.458,0 1.256,0.162 1.485,1.242 L 2.09,-1.643 C 2.128,-1.462 2.245,-0.91 1.873,-0.452 1.631,-0.151 1.272,0 0.808,0 Z"
             style="fill:#555a61;fill-opacity:1;fill-rule:nonzero;stroke:none"
             id="path420" />
        </g>
        <g
           id="g422"
           transform="translate(328.1764,103.1384)">
          <path
             d="m 0,0 c -0.456,0 -1.255,-0.16 -1.485,-1.24 l -5.331,-25.091 c -0.04,-0.18 -0.158,-0.733 0.214,-1.191 0.242,-0.299 0.602,-0.452 1.067,-0.452 h 0.806 c 0.458,0 1.257,0.161 1.486,1.243 L 2.09,-1.642 C 2.13,-1.462 2.246,-0.909 1.873,-0.45 1.633,-0.15 1.273,0 0.809,0 Z"
             style="fill:#555a61;fill-opacity:1;fill-rule:nonzero;stroke:none"
             id="path424" />
        </g>
      </g>
    </g>
    <g
       id="g426">
      <g
         id="g428"
         clip-path="url(#clipPath432)">
        <path
           d="m 321.311,103.138 h 9.004 V 75.163 h -9.004 z"
           style="fill:#555a61;fill-opacity:1;fill-rule:nonzero;stroke:none"
           id="path434" />
      </g>
    </g>
    <g
       id="g436">
      <g
         id="g438"
         clip-path="url(#clipPath442)">
        <g
           id="g444"
           transform="translate(336.8206,76.5689)">
          <path
             d="m 0,0 15.547,25.348 c 0.182,0.33 0.389,0.44 0.718,0.44 h 0.698 c 0.367,0 0.489,-0.11 0.529,-0.44 L 22.265,0 c 0.093,-0.255 -0.019,-0.441 -0.423,-0.441 h -0.66 c -0.55,0 -0.72,0.074 -0.758,0.406 L 18.918,8.07 H 6.742 L 1.789,-0.035 C 1.572,-0.367 1.409,-0.441 0.859,-0.441 H 0.236 C -0.167,-0.441 -0.166,-0.255 0,0 m 16.26,22.487 c -0.062,0.733 0.011,1.431 0.014,1.614 H 16.162 C 16.089,23.918 15.903,23.22 15.534,22.524 L 7.557,9.501 h 11.152 z"
             style="fill:#555a61;fill-opacity:1;fill-rule:nonzero;stroke:none"
             id="path446" />
        </g>
        <g
           id="g448"
           transform="translate(353.0852,102.357)">
          <path
             d="m 0,0 c -0.328,0 -0.536,-0.11 -0.717,-0.44 l -15.547,-25.348 c -0.166,-0.256 -0.167,-0.441 0.235,-0.441 h 0.623 c 0.551,0 0.714,0.074 0.931,0.405 l 4.951,8.106 H 2.653 l 1.506,-8.106 c 0.04,-0.331 0.209,-0.405 0.758,-0.405 h 0.66 c 0.403,0 0.516,0.185 0.425,0.441 L 1.227,-0.44 C 1.188,-0.11 1.065,0 0.699,0 Z m -0.73,-3.264 c 0.368,0.696 0.554,1.393 0.628,1.577 H 0.009 C 0.007,-1.871 -0.068,-2.568 -0.004,-3.301 L 2.444,-16.287 H -8.707 Z"
             style="fill:#555a61;fill-opacity:1;fill-rule:nonzero;stroke:none"
             id="path450" />
        </g>
        <g
           id="g452"
           transform="translate(353.085,102.3567)">
          <path
             d="m 0,0 c -0.328,0 -0.535,-0.11 -0.717,-0.441 l -15.548,-25.347 c -0.165,-0.257 -0.167,-0.441 0.237,-0.441 h 0.623 c 0.55,0 0.713,0.074 0.93,0.406 l 4.952,8.107 H 2.653 l 1.507,-8.107 c 0.039,-0.332 0.208,-0.406 0.757,-0.406 h 0.66 c 0.404,0 0.517,0.184 0.425,0.441 L 1.227,-0.441 C 1.188,-0.11 1.065,0 0.699,0 Z m -0.729,-3.263 c 0.368,0.695 0.553,1.391 0.627,1.577 H 0.01 C 0.008,-1.872 -0.068,-2.568 -0.004,-3.301 L 2.444,-16.287 H -8.707 Z"
             style="fill:#555a61;fill-opacity:1;fill-rule:nonzero;stroke:none"
             id="path454" />
        </g>
      </g>
    </g>
    <g
       id="g456">
      <g
         id="g458"
         clip-path="url(#clipPath462)">
        <path
           d="m 336.764,102.229 h 22.307 V 76.258 h -22.307 z"
           style="fill:#555a61;fill-opacity:1;fill-rule:nonzero;stroke:none"
           id="path464" />
      </g>
    </g>
    <g
       id="g466">
      <g
         id="g468"
         clip-path="url(#clipPath472)">
        <g
           id="g474"
           transform="translate(358.6626,75.1639)">
          <path
             d="M 0,0 H -0.66 C -1.048,0 -2.229,0 -2.377,1.255 L -3.726,8.51 H -14.561 L -19.23,0.866 C -19.708,0.139 -20.252,0 -20.983,0 h -0.623 c -0.729,0 -1.047,0.383 -1.17,0.611 -0.152,0.276 -0.254,0.726 0.116,1.307 l 15.544,25.34 c 0.317,0.582 0.844,0.9 1.539,0.9 h 0.698 c 0.834,0 1.372,-0.456 1.483,-1.255 L 1.361,1.641 C 1.474,1.253 1.417,0.859 1.201,0.551 1.023,0.3 0.672,0 0,0 m -12.562,11.87 h 8.265 l -1.946,10.321 z"
             style="fill:#555a61;fill-opacity:1;fill-rule:nonzero;stroke:none"
             id="path476" />
        </g>
        <g
           id="g478"
           transform="translate(353.0852,103.3219)">
          <path
             d="M 0,0 C -0.695,0 -1.222,-0.316 -1.539,-0.901 L -17.083,-26.24 c -0.369,-0.581 -0.267,-1.03 -0.116,-1.307 0.125,-0.228 0.441,-0.612 1.17,-0.612 h 0.623 c 0.731,0 1.277,0.141 1.753,0.867 l 4.671,7.644 H 1.851 L 3.2,-26.902 c 0.15,-1.257 1.329,-1.257 1.717,-1.257 h 0.66 c 0.672,0 1.023,0.301 1.201,0.552 0.216,0.308 0.273,0.7 0.16,1.089 L 2.181,-1.253 C 2.07,-0.456 1.532,0 0.699,0 Z m -0.665,-5.967 1.945,-10.32 h -8.265 z"
             style="fill:#555a61;fill-opacity:1;fill-rule:nonzero;stroke:none"
             id="path480" />
        </g>
        <g
           id="g482"
           transform="translate(353.085,103.3216)">
          <path
             d="M 0,0 C -0.695,0 -1.222,-0.317 -1.539,-0.901 L -17.083,-26.24 c -0.369,-0.58 -0.267,-1.03 -0.116,-1.307 0.125,-0.228 0.442,-0.612 1.171,-0.612 h 0.623 c 0.73,0 1.276,0.143 1.752,0.866 l 4.671,7.647 H 1.851 l 1.351,-7.256 c 0.148,-1.257 1.327,-1.257 1.715,-1.257 h 0.66 c 0.672,0 1.023,0.3 1.203,0.552 0.214,0.309 0.271,0.701 0.158,1.09 L 2.182,-1.253 C 2.071,-0.456 1.532,0 0.699,0 Z m -0.665,-5.968 1.946,-10.319 h -8.264 z"
             style="fill:#555a61;fill-opacity:1;fill-rule:nonzero;stroke:none"
             id="path484" />
        </g>
      </g>
    </g>
    <g
       id="g486">
      <g
         id="g488"
         clip-path="url(#clipPath492)">
        <path
           d="m 335.749,103.323 h 24.332 V 75.165 h -24.332 z"
           style="fill:#555a61;fill-opacity:1;fill-rule:nonzero;stroke:none"
           id="path494" />
      </g>
    </g>
    <g
       id="g496">
      <g
         id="g498"
         clip-path="url(#clipPath502)">
        <g
           id="g504"
           transform="translate(329.6989,107.7463)">
          <path
             d="m 0,0 -0.274,0.408 c -0.129,0.257 -0.105,0.367 0.183,0.514 l 7.033,3.925 c 0.325,0.146 0.634,0.22 0.79,-0.072 L 8.015,4.369 C 8.179,4.112 8.149,3.966 7.825,3.819 L 0.498,0.079 C 0.182,-0.031 0.035,-0.031 -0.08,0.115 Z"
             style="fill:#555a61;fill-opacity:1;fill-rule:nonzero;stroke:none"
             id="path506" />
        </g>
        <g
           id="g508"
           transform="translate(336.6415,112.5935)">
          <path
             d="M 0,0 -7.035,-3.925 C -7.322,-4.072 -7.346,-4.183 -7.217,-4.44 l 0.204,-0.302 c 0.114,-0.136 0.259,-0.135 0.57,-0.026 l 7.324,3.74 c 0.326,0.147 0.357,0.294 0.191,0.55 L 0.791,-0.074 C 0.711,0.073 0.594,0.128 0.457,0.128 0.319,0.128 0.161,0.073 0,0 m -6.942,-4.847 -0.071,0.105 c -0.004,0.002 -0.007,0.006 -0.01,0.01 z"
             style="fill:#555a61;fill-opacity:1;fill-rule:nonzero;stroke:none"
             id="path510" />
        </g>
        <g
           id="g512"
           transform="translate(336.6417,112.5932)">
          <path
             d="m 0,0 -7.033,-3.925 c -0.288,-0.148 -0.313,-0.257 -0.185,-0.513 l 0.205,-0.304 c -0.004,0.004 -0.007,0.006 -0.01,0.011 l 0.079,-0.116 -0.069,0.105 c 0.114,-0.136 0.261,-0.135 0.57,-0.026 l 7.325,3.741 c 0.323,0.148 0.356,0.293 0.19,0.549 L 0.791,-0.072 C 0.713,0.072 0.596,0.128 0.457,0.128 0.319,0.128 0.161,0.072 0,0"
             style="fill:#555a61;fill-opacity:1;fill-rule:nonzero;stroke:none"
             id="path514" />
        </g>
      </g>
    </g>
    <g
       id="g516">
      <g
         id="g518"
         clip-path="url(#clipPath522)">
        <path
           d="m 329.331,112.758 h 8.499 v -5.049 h -8.499 z"
           style="fill:#555a61;fill-opacity:1;fill-rule:nonzero;stroke:none"
           id="path524" />
      </g>
    </g>
    <g
       id="g526">
      <g
         id="g528"
         clip-path="url(#clipPath532)">
        <g
           id="g534"
           transform="translate(329.8393,106.786)">
          <path
             d="M 0,0 C -0.377,0 -0.691,0.142 -0.937,0.427 L -0.942,0.423 -1.276,0.934 C -1.652,1.68 -1.427,2.355 -0.672,2.741 L 6.405,6.687 C 7.635,7.241 8.217,6.565 8.406,6.255 L 8.668,5.881 C 8.927,5.475 8.996,5.103 8.89,4.743 8.781,4.378 8.51,4.095 8.081,3.9 L 0.675,0.126 C 0.43,0.042 0.206,0 0,0 M 7.252,5.629 7.772,4.824 7.305,5.669 C 7.293,5.661 7.272,5.649 7.252,5.629"
             style="fill:#555a61;fill-opacity:1;fill-rule:nonzero;stroke:none"
             id="path536" />
        </g>
        <g
           id="g538"
           transform="translate(336.244,113.4729)">
          <path
             d="m 0,0 -7.077,-3.946 c -0.754,-0.385 -0.98,-1.061 -0.604,-1.806 l 0.334,-0.512 0.006,0.006 c 0.244,-0.285 0.559,-0.429 0.936,-0.429 0.206,0 0.433,0.041 0.675,0.127 l 7.406,3.773 c 0.429,0.194 0.701,0.478 0.808,0.843 0.107,0.36 0.038,0.732 -0.221,1.137 l -0.26,0.375 C 1.863,-0.206 1.519,0.211 0.871,0.211 0.626,0.211 0.337,0.15 0,0 m 0.846,-1.057 c 0.023,0.019 0.042,0.032 0.054,0.039 l 0.467,-0.846 z"
             style="fill:#555a61;fill-opacity:1;fill-rule:nonzero;stroke:none"
             id="path540" />
        </g>
        <g
           id="g542"
           transform="translate(336.244,113.4726)">
          <path
             d="m 0,0 -7.077,-3.946 c -0.753,-0.386 -0.978,-1.06 -0.604,-1.807 l 0.334,-0.511 0.006,0.006 c 0.245,-0.285 0.559,-0.429 0.937,-0.429 0.204,0 0.431,0.043 0.675,0.127 l 7.407,3.774 c 0.426,0.194 0.699,0.477 0.806,0.844 0.107,0.358 0.039,0.73 -0.221,1.134 l -0.26,0.377 C 1.863,-0.206 1.519,0.21 0.871,0.21 0.626,0.21 0.337,0.151 0,0 m 0.846,-1.057 c 0.023,0.019 0.042,0.032 0.054,0.039 l 0.465,-0.845 z"
             style="fill:#555a61;fill-opacity:1;fill-rule:nonzero;stroke:none"
             id="path544" />
        </g>
      </g>
    </g>
    <g
       id="g546">
      <g
         id="g548"
         clip-path="url(#clipPath552)">
        <path
           d="m 328.385,113.684 h 10.391 v -6.899 h -10.391 z"
           style="fill:#555a61;fill-opacity:1;fill-rule:nonzero;stroke:none"
           id="path554" />
      </g>
    </g>
    <g
       id="g556">
      <g
         id="g558"
         clip-path="url(#clipPath562)">
        <g
           id="g564"
           transform="translate(403.0058,182.079)">
          <path
             d="M 0,0 V -121.544"
             style="fill:none;stroke:#555a61;stroke-width:1;stroke-linecap:round;stroke-linejoin:miter;stroke-miterlimit:10;stroke-dasharray:none;stroke-opacity:1"
             id="path566" />
        </g>
      </g>
    </g>
  </g>
</svg>
